<?xml version="1.0" encoding="UTF-8" ?>
<!DOCTYPE svg PUBLIC "-//W3C//DTD SVG 1.1//EN" "http://www.w3.org/Graphics/SVG/1.1/DTD/svg11.dtd">
<svg width="512pt" height="512pt" viewBox="0 0 512 512" version="1.1" xmlns="http://www.w3.org/2000/svg">
	<g id="#fefefeff">
	<path fill="#fefefe" opacity="1.00" d=" M 233.94 24.21 C 241.48 22.25 249.27 23.79 256.93 23.81 C 265.93 24.75 275.18 23.65 283.97 26.17 C 297.57 29.56 311.17 32.98 324.77 36.37 C 327.57 37.08 330.46 37.58 333.04 38.94 C 343.02 43.98 353.04 48.96 363.04 53.97 C 366.05 55.48 368.64 57.66 371.26 59.74 C 378.11 65.24 385.00 70.69 391.87 76.16 C 394.80 78.54 397.97 80.71 400.22 83.79 C 407.11 92.53 414.56 100.86 421.13 109.84 C 425.59 118.90 429.27 128.34 433.46 137.54 C 436.20 143.19 436.59 149.58 438.50 155.50 C 444.66 160.33 451.20 164.70 457.12 169.84 C 464.81 175.00 468.92 184.12 470.27 193.03 C 469.46 199.29 468.73 205.65 466.73 211.67 C 465.18 216.12 461.50 220.80 464.55 225.49 C 469.21 229.36 472.11 234.75 474.94 240.00 C 477.83 246.96 476.99 254.65 477.23 262.01 C 477.44 265.36 476.55 268.62 475.84 271.87 C 479.65 275.49 484.27 278.44 486.85 283.17 C 490.51 288.88 490.63 296.54 486.66 302.13 C 490.75 307.73 494.49 313.70 496.41 320.42 C 498.76 329.07 501.06 338.04 499.72 347.06 C 498.03 358.04 495.15 369.26 488.14 378.15 C 482.51 386.79 474.26 393.34 465.37 398.38 C 458.41 402.26 450.53 403.91 442.81 405.49 C 435.21 406.91 427.36 406.37 419.89 404.47 C 413.66 403.16 407.48 401.37 401.88 398.27 C 383.89 410.98 364.01 420.97 343.08 427.83 C 294.77 443.74 242.08 446.95 192.54 434.85 C 161.86 428.14 132.23 415.80 106.81 397.21 C 103.58 398.17 100.78 400.34 97.53 401.35 C 85.10 405.56 71.51 408.21 58.59 404.49 C 37.30 400.79 18.85 385.15 10.78 365.25 C 7.35 354.91 4.82 343.86 6.72 332.95 C 8.31 325.11 9.98 317.10 14.14 310.16 C 15.67 308.37 14.06 306.27 13.68 304.38 C 11.75 299.45 13.41 293.71 16.75 289.77 C 21.72 283.11 27.33 276.97 32.81 270.74 C 32.31 268.18 29.77 266.45 29.35 263.80 C 27.44 258.03 28.23 251.91 28.10 245.95 C 28.42 241.78 29.16 237.30 32.11 234.12 C 35.34 230.18 41.60 229.37 43.39 224.20 C 44.40 220.58 46.11 216.84 45.10 213.03 C 43.66 205.31 42.74 197.51 42.12 189.69 C 41.85 184.97 42.93 179.86 46.43 176.46 C 54.34 168.64 63.00 161.56 70.77 153.62 C 72.83 147.02 73.55 139.96 76.75 133.74 C 79.29 128.63 80.91 123.00 84.49 118.47 C 91.34 109.30 97.75 99.81 104.73 90.75 C 110.86 84.54 117.43 78.77 123.69 72.69 C 128.52 68.52 132.67 63.48 138.32 60.34 C 148.11 54.79 157.84 49.15 167.67 43.67 C 175.48 40.06 183.41 36.71 191.24 33.15 C 194.99 31.39 199.12 30.75 203.15 29.91 C 213.41 28.00 223.68 26.11 233.94 24.21 M 202.23 39.43 C 197.10 40.23 192.59 42.94 187.85 44.89 C 180.81 48.15 173.47 50.81 166.82 54.85 C 158.99 59.34 151.13 63.79 143.28 68.25 C 141.19 69.43 139.23 70.84 137.52 72.52 C 131.45 78.46 125.11 84.10 119.01 90.00 C 115.62 93.26 111.87 96.25 109.17 100.16 C 103.45 108.11 97.72 116.06 91.95 123.98 C 89.55 127.19 88.28 131.04 86.60 134.64 C 84.31 139.35 82.29 144.20 81.32 149.38 C 79.95 153.48 80.24 158.64 76.45 161.46 C 68.87 168.19 61.68 175.37 53.86 181.82 C 52.26 183.03 51.55 185.04 51.31 186.97 C 51.65 196.98 53.73 206.84 54.78 216.77 C 53.41 222.32 52.69 228.40 48.96 232.99 C 46.23 237.43 39.11 237.60 37.73 243.03 C 37.39 248.64 37.30 254.35 37.79 259.95 C 39.36 264.03 42.53 267.28 44.71 271.04 C 37.60 280.11 29.12 288.08 22.63 297.63 C 20.64 301.52 24.10 305.40 28.00 305.76 C 26.63 308.38 24.74 310.67 23.20 313.19 C 19.07 319.75 16.88 327.36 15.78 334.99 C 13.69 352.41 20.67 370.59 33.85 382.17 C 44.14 391.67 58.09 396.64 71.99 396.91 C 84.41 396.87 96.77 392.93 106.85 385.65 C 133.09 406.05 164.36 419.43 196.74 426.43 C 225.62 432.98 255.59 434.32 285.01 431.18 C 326.52 426.48 367.58 412.54 401.18 387.28 C 405.82 389.44 410.15 392.48 415.20 393.80 C 433.79 400.24 455.55 396.30 470.61 383.62 C 484.26 372.52 491.91 354.60 490.52 337.07 C 489.56 327.01 486.24 317.06 480.11 308.95 C 477.76 305.37 474.34 302.69 471.79 299.29 C 474.51 298.44 478.25 298.58 479.71 295.63 C 481.75 292.02 479.27 287.90 476.78 285.24 C 472.23 281.08 467.56 277.05 462.98 272.92 C 464.88 270.90 467.65 269.08 467.73 266.00 C 467.96 260.36 467.66 254.70 467.64 249.05 C 467.74 244.59 464.65 241.06 462.66 237.33 C 461.23 234.49 458.25 233.03 456.38 230.59 C 455.26 227.14 454.13 223.62 453.63 220.03 C 455.18 213.52 459.30 207.81 459.80 201.02 C 460.16 197.07 461.86 192.83 459.90 189.03 C 458.39 185.99 457.30 182.59 454.90 180.11 C 447.85 174.10 440.53 168.42 432.96 163.07 C 431.88 162.15 430.31 161.47 430.03 159.93 C 428.36 153.92 427.79 147.56 425.16 141.85 C 421.46 133.49 417.84 125.11 414.20 116.74 C 413.10 114.05 411.11 111.89 409.31 109.67 C 403.91 103.08 398.53 96.48 393.14 89.89 C 391.66 88.03 389.89 86.44 388.02 84.98 C 379.63 78.37 371.32 71.67 362.94 65.05 C 359.87 62.56 356.15 61.13 352.68 59.31 C 344.71 55.27 336.72 51.25 328.73 47.25 C 326.33 46.03 323.66 45.51 321.07 44.85 C 310.44 42.22 299.82 39.54 289.19 36.89 C 284.18 35.72 279.24 34.00 274.04 33.93 C 262.70 33.63 251.37 32.78 240.03 32.58 C 227.39 34.63 214.84 37.21 202.23 39.43 Z" />
	<path fill="#fefefe" opacity="1.00" d=" M 124.20 261.72 C 127.45 262.62 130.47 264.14 133.56 265.47 C 159.83 277.03 186.38 288.04 211.92 301.17 C 205.70 314.26 193.90 324.90 179.77 328.60 C 165.77 332.36 150.15 329.16 138.70 320.29 C 127.47 311.84 120.37 298.15 120.18 284.08 C 120.10 276.51 119.73 268.28 124.20 261.72 Z" />
	<path fill="#fefefe" opacity="1.00" d=" M 353.44 275.49 C 363.99 270.70 374.31 265.36 385.08 261.05 C 390.21 267.16 389.71 275.58 389.73 283.05 C 389.86 296.76 383.60 310.33 373.12 319.16 C 363.10 327.76 349.23 331.80 336.18 329.55 C 320.46 327.02 307.01 315.50 300.62 301.13 C 317.97 292.07 335.74 283.84 353.44 275.49 Z" />
	</g>
	<g id="#000000ff">
	<path fill="#000000" opacity="1.00" d=" M 202.23 39.43 C 214.84 37.21 227.39 34.63 240.03 32.58 C 251.37 32.78 262.70 33.63 274.04 33.93 C 279.24 34.00 284.18 35.72 289.19 36.89 C 299.82 39.54 310.44 42.22 321.07 44.85 C 323.66 45.51 326.33 46.03 328.73 47.25 C 336.72 51.25 344.71 55.27 352.68 59.31 C 356.15 61.13 359.87 62.56 362.94 65.05 C 371.32 71.67 379.63 78.37 388.02 84.98 C 389.89 86.44 391.66 88.03 393.14 89.89 C 398.53 96.48 403.91 103.08 409.31 109.67 C 411.11 111.89 413.10 114.05 414.20 116.74 C 417.84 125.11 421.46 133.49 425.16 141.85 C 427.79 147.56 428.36 153.92 430.03 159.93 C 430.31 161.47 431.88 162.15 432.96 163.07 C 440.53 168.42 447.85 174.10 454.90 180.11 C 457.30 182.59 458.39 185.99 459.90 189.03 C 461.86 192.83 460.16 197.07 459.80 201.02 C 459.30 207.81 455.18 213.52 453.63 220.03 C 454.13 223.62 455.26 227.14 456.38 230.59 C 458.25 233.03 461.23 234.49 462.66 237.33 C 464.65 241.06 467.74 244.59 467.64 249.05 C 467.66 254.70 467.96 260.36 467.73 266.00 C 467.65 269.08 464.88 270.90 462.98 272.92 C 467.56 277.05 472.23 281.08 476.78 285.24 C 479.27 287.90 481.75 292.02 479.71 295.63 C 478.25 298.58 474.51 298.44 471.79 299.29 C 474.34 302.69 477.76 305.37 480.11 308.95 C 486.24 317.06 489.56 327.01 490.52 337.07 C 491.91 354.60 484.26 372.52 470.61 383.62 C 455.55 396.30 433.79 400.24 415.20 393.80 C 410.15 392.48 405.82 389.44 401.18 387.28 C 367.58 412.54 326.52 426.48 285.01 431.18 C 255.59 434.32 225.62 432.98 196.74 426.43 C 164.36 419.43 133.09 406.05 106.85 385.65 C 96.77 392.93 84.41 396.87 71.99 396.91 C 58.09 396.64 44.14 391.67 33.85 382.17 C 20.67 370.59 13.69 352.41 15.78 334.99 C 16.88 327.36 19.07 319.75 23.20 313.19 C 24.74 310.67 26.63 308.38 28.00 305.76 C 24.10 305.40 20.64 301.52 22.63 297.63 C 29.12 288.08 37.60 280.11 44.71 271.04 C 42.53 267.28 39.36 264.03 37.79 259.95 C 37.30 254.35 37.39 248.64 37.73 243.03 C 39.11 237.60 46.23 237.43 48.96 232.99 C 52.69 228.40 53.41 222.32 54.78 216.77 C 53.73 206.84 51.65 196.98 51.31 186.97 C 51.55 185.04 52.26 183.03 53.86 181.82 C 61.68 175.37 68.87 168.19 76.45 161.46 C 80.24 158.64 79.95 153.48 81.32 149.38 C 82.29 144.20 84.31 139.35 86.60 134.64 C 88.28 131.04 89.55 127.19 91.95 123.98 C 97.72 116.06 103.45 108.11 109.17 100.16 C 111.87 96.25 115.62 93.26 119.01 90.00 C 125.11 84.10 131.45 78.46 137.52 72.52 C 139.23 70.84 141.19 69.43 143.28 68.25 C 151.13 63.79 158.99 59.34 166.82 54.85 C 173.47 50.81 180.81 48.15 187.85 44.89 C 192.59 42.94 197.10 40.23 202.23 39.43 M 237.57 38.59 C 226.31 40.68 215.05 42.80 203.76 44.77 C 199.37 45.50 195.50 47.80 191.44 49.50 C 184.15 52.81 176.66 55.73 169.71 59.74 C 163.67 63.43 157.08 66.11 151.30 70.22 C 141.81 74.93 134.74 83.01 127.23 90.23 C 122.81 94.48 117.69 98.03 114.04 103.03 C 108.34 110.99 102.56 118.89 96.87 126.86 C 94.12 130.77 92.63 135.35 90.59 139.63 C 87.48 145.93 85.70 152.84 84.92 159.80 C 93.03 154.90 101.86 151.46 110.42 147.48 C 121.38 142.27 133.00 138.67 144.29 134.25 C 156.19 129.54 168.63 126.48 180.86 122.81 C 186.11 121.26 191.31 119.45 196.75 118.65 C 207.64 116.96 218.47 114.87 229.40 113.45 C 238.91 112.34 248.37 110.25 258.00 110.87 C 278.30 110.45 298.65 111.74 318.62 115.44 C 321.93 116.27 325.09 117.57 328.29 118.72 C 346.02 125.07 363.90 130.99 381.59 137.45 C 393.29 142.95 405.22 148.03 416.43 154.53 C 418.75 155.92 421.21 157.05 423.75 157.96 C 422.56 148.30 417.98 139.66 414.14 130.87 C 411.36 125.06 409.74 118.53 405.33 113.65 C 399.68 106.96 394.25 100.10 388.67 93.35 C 386.07 90.24 382.65 88.01 379.54 85.48 C 373.25 80.42 366.91 75.43 360.65 70.33 C 358.59 68.67 356.34 67.25 353.97 66.07 C 345.29 61.76 336.60 57.46 327.97 53.05 C 325.63 51.86 323.14 51.02 320.59 50.40 C 307.25 47.19 293.96 43.71 280.62 40.47 C 272.14 39.18 263.53 39.13 254.97 38.92 C 249.17 38.79 243.35 37.46 237.57 38.59 M 237.59 119.56 C 228.72 121.14 219.80 122.40 210.90 123.80 C 200.96 124.87 191.63 128.66 182.02 131.19 C 182.05 132.77 182.08 134.34 182.24 135.91 C 185.28 157.56 188.50 179.18 191.38 200.85 C 208.24 198.22 225.04 195.11 242.01 193.16 C 244.05 192.95 246.07 192.56 248.05 192.03 C 248.12 185.03 247.80 178.04 247.19 171.06 C 246.66 153.69 245.48 136.35 244.83 118.98 C 242.41 119.02 239.98 119.13 237.59 119.56 M 251.24 119.15 C 252.29 127.47 251.78 135.87 252.62 144.19 C 253.24 151.18 252.86 158.22 253.62 165.20 C 254.23 174.12 253.99 183.08 255.12 191.97 C 262.34 192.40 269.59 191.76 276.80 192.38 C 283.86 193.08 291.01 192.61 298.02 193.84 C 305.97 195.13 314.10 195.43 321.88 197.59 C 325.30 174.89 328.75 152.19 331.72 129.43 C 321.85 126.56 312.41 121.78 302.01 121.18 C 292.34 120.33 282.74 118.50 273.00 118.81 C 265.75 118.99 258.47 118.46 251.24 119.15 M 338.25 132.03 C 334.70 154.61 331.67 177.28 328.25 199.88 C 332.02 201.57 335.94 202.91 339.88 204.13 C 342.79 205.15 345.42 202.78 348.19 202.23 C 355.88 200.61 364.30 202.51 370.24 207.76 C 374.78 210.91 376.56 217.04 381.98 219.04 C 387.50 221.45 392.77 224.56 398.63 226.10 C 401.09 205.07 403.24 184.02 405.85 163.02 C 406.04 161.10 405.98 159.17 405.91 157.25 C 388.05 148.96 369.35 142.80 350.88 136.08 C 346.72 134.59 342.65 132.74 338.25 132.03 M 128.14 148.16 C 119.31 150.90 110.92 154.87 102.45 158.54 C 101.46 160.63 102.45 163.07 102.67 165.26 C 106.73 185.77 110.00 206.43 114.22 226.90 C 118.19 225.36 122.33 224.11 126.05 222.04 C 128.63 218.93 130.77 215.46 133.42 212.39 C 141.43 202.28 156.86 198.39 168.36 204.65 C 169.99 205.27 171.57 206.70 173.43 206.26 C 177.34 205.42 181.13 204.10 184.90 202.78 C 183.68 191.11 181.73 179.53 180.16 167.91 C 178.36 156.37 177.20 144.72 175.01 133.26 C 159.36 138.15 143.80 143.32 128.14 148.16 M 413.00 160.22 C 411.90 164.73 411.66 169.39 411.10 173.99 C 409.23 190.46 407.45 206.95 405.44 223.40 C 405.18 225.53 405.09 227.68 405.03 229.82 C 411.93 233.63 419.18 236.86 425.74 241.25 C 431.99 245.98 438.34 250.60 443.97 256.07 C 448.51 259.84 452.84 263.99 455.84 269.13 C 453.89 268.15 452.00 267.05 450.25 265.76 C 441.52 259.41 432.52 253.42 423.64 247.27 C 417.49 242.90 410.24 240.59 403.42 237.54 C 398.20 235.38 393.14 232.82 387.75 231.13 C 390.61 239.12 395.69 246.20 397.74 254.53 C 395.17 255.69 392.64 256.91 390.12 258.16 C 392.67 262.70 394.65 267.67 394.82 272.94 C 395.10 281.33 395.53 289.96 392.97 298.08 C 389.05 311.08 380.23 323.02 367.83 328.99 L 368.34 329.44 C 359.29 333.83 349.23 336.43 339.12 335.58 C 333.66 334.83 328.38 333.24 323.04 331.96 C 321.82 330.86 320.28 330.24 318.85 329.51 C 315.02 326.74 311.20 323.97 307.59 320.92 C 303.99 316.95 300.57 312.78 297.90 308.11 C 296.66 306.61 296.67 302.84 294.11 303.45 L 293.88 304.26 C 291.28 300.80 290.10 296.58 288.46 292.64 C 283.65 281.71 281.67 269.78 280.31 258.00 C 279.51 254.74 282.65 252.52 285.63 253.23 C 287.68 255.34 289.10 258.87 291.83 259.85 C 305.73 243.98 317.78 226.52 332.20 211.06 C 324.21 208.10 316.17 205.07 307.86 203.19 C 294.27 201.76 280.71 199.21 267.00 199.77 C 260.55 199.90 254.06 199.30 247.66 200.33 C 245.25 199.47 242.67 200.28 240.23 200.51 C 227.91 202.57 215.52 204.25 203.22 206.39 C 195.88 208.38 188.53 210.39 181.38 212.95 C 184.26 216.60 187.74 219.70 190.86 223.14 C 201.58 235.46 211.74 248.28 222.98 260.14 C 225.98 257.30 228.04 252.36 232.89 252.83 C 234.07 254.33 235.21 256.00 234.82 258.03 C 233.76 271.38 230.21 284.49 224.64 296.67 C 223.66 298.73 222.69 300.80 221.75 302.88 C 221.12 302.99 219.86 303.22 219.22 303.34 C 218.76 303.06 217.82 302.50 217.36 302.22 C 216.37 304.53 215.30 306.80 214.11 309.01 C 211.00 314.14 206.66 318.28 202.84 322.85 C 199.40 324.58 196.59 327.34 193.21 329.19 C 187.28 332.68 180.48 334.06 173.88 335.66 C 159.81 336.63 145.21 332.84 133.98 324.16 C 130.95 320.52 127.04 317.61 124.47 313.55 C 115.25 301.20 113.14 284.97 115.25 270.04 C 115.81 266.20 117.27 262.58 119.07 259.16 C 115.68 257.67 112.30 256.15 108.88 254.74 C 110.50 247.61 114.45 241.36 117.80 234.96 C 116.31 235.82 114.86 236.80 113.19 237.29 C 107.56 238.95 102.35 241.70 96.95 243.95 C 82.80 249.73 69.20 257.04 57.03 266.34 C 55.56 265.68 54.13 264.97 52.72 264.21 C 56.13 261.10 59.84 258.34 63.35 255.33 C 70.49 249.14 79.14 245.14 87.03 240.04 C 93.53 235.74 101.08 233.50 107.90 229.81 C 103.87 207.21 99.49 184.66 95.58 162.04 C 91.14 162.98 87.05 165.04 82.98 166.98 C 73.44 172.38 64.45 178.95 57.30 187.32 C 57.05 196.23 59.05 205.11 60.26 213.94 C 60.90 218.15 59.11 222.17 58.25 226.22 C 57.28 230.89 54.81 235.13 51.67 238.67 C 49.09 240.86 45.94 242.24 43.19 244.20 C 43.19 249.00 42.58 253.89 43.45 258.65 C 45.42 263.42 49.84 266.79 51.31 271.82 C 43.99 281.57 34.84 289.84 28.00 299.95 C 34.38 298.31 40.96 297.54 47.17 295.28 C 50.54 294.34 53.89 292.78 57.43 292.76 C 55.18 293.67 52.96 294.65 50.80 295.78 C 37.99 301.59 27.64 312.78 23.36 326.24 C 18.46 341.43 21.44 359.00 31.49 371.47 C 41.83 384.93 59.13 392.50 76.03 391.16 C 87.37 390.47 98.11 385.66 106.87 378.55 C 112.77 383.24 118.82 387.76 125.23 391.73 C 173.02 421.82 231.69 431.79 287.32 425.31 C 328.20 420.32 368.65 405.92 401.09 380.12 C 410.84 387.32 422.77 391.70 434.98 391.29 C 450.21 390.99 465.24 383.68 474.54 371.56 C 482.67 361.39 486.43 347.85 484.68 334.95 C 482.79 319.37 472.80 305.09 458.99 297.73 C 457.92 296.97 456.86 296.20 455.78 295.49 C 462.22 294.88 468.81 295.23 474.97 292.86 C 474.23 290.83 473.09 288.96 471.38 287.62 C 465.23 282.52 459.27 277.13 454.03 271.09 C 456.79 269.64 460.04 268.50 461.73 265.69 C 462.46 260.82 461.90 255.86 461.98 250.95 C 462.15 246.93 459.89 243.42 457.77 240.22 C 455.79 237.24 451.88 235.76 450.88 232.14 C 449.79 228.15 448.38 224.18 448.01 220.04 C 448.87 214.60 451.62 209.73 453.37 204.56 C 454.35 200.81 455.03 196.92 454.99 193.04 C 454.30 189.40 452.43 185.78 449.22 183.76 C 440.60 177.72 431.93 171.76 423.39 165.63 C 420.20 163.34 416.62 161.69 413.00 160.22 M 124.20 261.72 C 119.73 268.28 120.10 276.51 120.18 284.08 C 120.37 298.15 127.47 311.84 138.70 320.29 C 150.15 329.16 165.77 332.36 179.77 328.60 C 193.90 324.90 205.70 314.26 211.92 301.17 C 186.38 288.04 159.83 277.03 133.56 265.47 C 130.47 264.14 127.45 262.62 124.20 261.72 M 353.44 275.49 C 335.74 283.84 317.97 292.07 300.62 301.13 C 307.01 315.50 320.46 327.02 336.18 329.55 C 349.23 331.80 363.10 327.76 373.12 319.16 C 383.60 310.33 389.86 296.76 389.73 283.05 C 389.71 275.58 390.21 267.16 385.08 261.05 C 374.31 265.36 363.99 270.70 353.44 275.49 Z" />
	<path fill="#000000" opacity="1.00" d=" M 401.44 271.11 C 401.72 271.42 402.29 272.04 402.57 272.35 C 402.66 275.21 402.80 278.08 402.99 280.95 C 404.27 280.74 405.56 280.53 406.85 280.33 C 407.83 284.20 408.33 288.17 409.05 292.10 C 414.36 289.79 418.26 285.41 421.90 281.06 C 419.17 288.24 414.65 296.55 406.37 298.00 C 405.86 293.37 407.10 288.18 404.79 283.98 C 403.13 283.95 401.51 284.37 399.90 284.69 C 399.77 280.11 400.45 275.57 401.44 271.11 Z" />
	<path fill="#000000" opacity="1.00" d=" M 396.94 342.97 C 400.42 339.34 402.80 334.86 405.93 330.96 C 403.51 341.15 395.95 348.78 389.91 356.94 C 384.81 361.48 378.44 364.16 372.93 368.13 L 372.20 368.42 C 371.70 368.29 370.69 368.04 370.19 367.91 C 374.35 364.16 378.95 360.93 383.15 357.23 C 388.19 352.92 392.39 347.76 396.94 342.97 Z" />
	</g>
	<g id="#232222ff">
	<path fill="#232222" opacity="1.00" d=" M 237.57 38.59 C 243.35 37.46 249.17 38.79 254.97 38.92 C 263.53 39.13 272.14 39.18 280.62 40.47 C 293.96 43.71 307.25 47.19 320.59 50.40 C 323.14 51.02 325.63 51.86 327.97 53.05 C 336.60 57.46 345.29 61.76 353.97 66.07 C 356.34 67.25 358.59 68.67 360.65 70.33 C 366.91 75.43 373.25 80.42 379.54 85.48 C 382.65 88.01 386.07 90.24 388.67 93.35 C 394.25 100.10 399.68 106.96 405.33 113.65 C 409.74 118.53 411.36 125.06 414.14 130.87 C 417.98 139.66 422.56 148.30 423.75 157.96 C 421.21 157.05 418.75 155.92 416.43 154.53 C 405.22 148.03 393.29 142.95 381.59 137.45 C 363.90 130.99 346.02 125.07 328.29 118.72 C 325.09 117.57 321.93 116.27 318.62 115.44 C 298.65 111.74 278.30 110.45 258.00 110.87 C 248.37 110.25 238.91 112.34 229.40 113.45 C 218.47 114.87 207.64 116.96 196.75 118.65 C 191.31 119.45 186.11 121.26 180.86 122.81 C 168.63 126.48 156.19 129.54 144.29 134.25 C 133.00 138.67 121.38 142.27 110.42 147.48 C 101.86 151.46 93.03 154.90 84.92 159.80 C 85.70 152.84 87.48 145.93 90.59 139.63 C 92.63 135.35 94.12 130.77 96.87 126.86 C 102.56 118.89 108.34 110.99 114.04 103.03 C 117.69 98.03 122.81 94.48 127.23 90.23 C 134.74 83.01 141.81 74.93 151.30 70.22 C 157.08 66.11 163.67 63.43 169.71 59.74 C 176.66 55.73 184.15 52.81 191.44 49.50 C 195.50 47.80 199.37 45.50 203.76 44.77 C 215.05 42.80 226.31 40.68 237.57 38.59 Z" />
	<path fill="#232222" opacity="1.00" d=" M 237.59 119.56 C 239.98 119.13 242.41 119.02 244.83 118.98 C 245.48 136.35 246.66 153.69 247.19 171.06 C 247.80 178.04 248.12 185.03 248.05 192.03 C 246.07 192.56 244.05 192.95 242.01 193.16 C 225.04 195.11 208.24 198.22 191.38 200.85 C 188.50 179.18 185.28 157.56 182.24 135.91 C 182.08 134.34 182.05 132.77 182.02 131.19 C 191.63 128.66 200.96 124.87 210.90 123.80 C 219.80 122.40 228.72 121.14 237.59 119.56 Z" />
	<path fill="#232222" opacity="1.00" d=" M 251.24 119.15 C 258.47 118.46 265.75 118.99 273.00 118.81 C 282.74 118.50 292.34 120.33 302.01 121.18 C 312.41 121.78 321.85 126.56 331.72 129.43 C 328.75 152.19 325.30 174.89 321.88 197.59 C 314.10 195.43 305.97 195.13 298.02 193.84 C 291.01 192.61 283.86 193.08 276.80 192.38 C 269.59 191.76 262.34 192.40 255.12 191.97 C 253.99 183.08 254.23 174.12 253.62 165.20 C 252.86 158.22 253.24 151.18 252.62 144.19 C 251.78 135.87 252.29 127.47 251.24 119.15 Z" />
	<path fill="#232222" opacity="1.00" d=" M 338.25 132.03 C 342.65 132.74 346.72 134.59 350.88 136.08 C 369.35 142.80 388.05 148.96 405.91 157.25 C 405.98 159.17 406.04 161.10 405.85 163.02 C 403.24 184.02 401.09 205.07 398.63 226.10 C 392.77 224.56 387.50 221.45 381.98 219.04 C 376.56 217.04 374.78 210.91 370.24 207.76 C 364.30 202.51 355.88 200.61 348.19 202.23 C 345.42 202.78 342.79 205.15 339.88 204.13 C 335.94 202.91 332.02 201.57 328.25 199.88 C 331.67 177.28 334.70 154.61 338.25 132.03 Z" />
	<path fill="#232222" opacity="1.00" d=" M 128.14 148.16 C 143.80 143.32 159.36 138.15 175.01 133.26 C 177.20 144.72 178.36 156.37 180.16 167.91 C 181.73 179.53 183.68 191.11 184.90 202.78 C 181.13 204.10 177.34 205.42 173.43 206.26 C 171.57 206.70 169.99 205.27 168.36 204.65 C 156.86 198.39 141.43 202.28 133.42 212.39 C 130.77 215.46 128.63 218.93 126.05 222.04 C 122.33 224.11 118.19 225.36 114.22 226.90 C 110.00 206.43 106.73 185.77 102.67 165.26 C 102.45 163.07 101.46 160.63 102.45 158.54 C 110.92 154.87 119.31 150.90 128.14 148.16 Z" />
	<path fill="#232222" opacity="1.00" d=" M 413.00 160.22 C 416.62 161.69 420.20 163.34 423.39 165.63 C 431.93 171.76 440.60 177.72 449.22 183.76 C 452.43 185.78 454.30 189.40 454.99 193.04 C 455.03 196.92 454.35 200.81 453.37 204.56 C 451.62 209.73 448.87 214.60 448.01 220.04 C 448.38 224.18 449.79 228.15 450.88 232.14 C 451.88 235.76 455.79 237.24 457.77 240.22 C 459.89 243.42 462.15 246.93 461.98 250.95 C 461.90 255.86 462.46 260.82 461.73 265.69 C 460.04 268.50 456.79 269.64 454.03 271.09 C 459.27 277.13 465.23 282.52 471.38 287.62 C 473.09 288.96 474.23 290.83 474.97 292.86 C 468.81 295.23 462.22 294.88 455.78 295.49 C 452.60 294.92 449.36 294.83 446.15 295.08 C 439.88 306.40 435.11 318.49 428.83 329.81 C 424.28 339.20 415.35 345.17 407.23 351.19 C 402.24 354.98 396.15 356.87 389.91 356.94 C 395.95 348.78 403.51 341.15 405.93 330.96 C 402.80 334.86 400.42 339.34 396.94 342.97 C 392.39 347.76 388.19 352.92 383.15 357.23 C 378.95 360.93 374.35 364.16 370.19 367.91 C 370.69 368.04 371.70 368.29 372.20 368.42 C 370.84 369.00 369.49 369.59 368.12 370.11 C 368.58 357.40 370.73 344.79 371.37 332.09 C 370.35 331.20 369.34 330.32 368.34 329.44 L 367.83 328.99 C 380.23 323.02 389.05 311.08 392.97 298.08 C 395.53 289.96 395.10 281.33 394.82 272.94 C 394.65 267.67 392.67 262.70 390.12 258.16 C 392.64 256.91 395.17 255.69 397.74 254.53 C 395.69 246.20 390.61 239.12 387.75 231.13 C 393.14 232.82 398.20 235.38 403.42 237.54 C 410.24 240.59 417.49 242.90 423.64 247.27 C 432.52 253.42 441.52 259.41 450.25 265.76 C 452.00 267.05 453.89 268.15 455.84 269.13 C 452.84 263.99 448.51 259.84 443.97 256.07 C 438.34 250.60 431.99 245.98 425.74 241.25 C 419.18 236.86 411.93 233.63 405.03 229.82 C 405.09 227.68 405.18 225.53 405.44 223.40 C 407.45 206.95 409.23 190.46 411.10 173.99 C 411.66 169.39 411.90 164.73 413.00 160.22 M 401.44 271.11 C 400.45 275.57 399.77 280.11 399.90 284.69 C 401.51 284.37 403.13 283.95 404.79 283.98 C 407.10 288.18 405.86 293.37 406.37 298.00 C 414.65 296.55 419.17 288.24 421.90 281.06 C 418.26 285.41 414.36 289.79 409.05 292.10 C 408.33 288.17 407.83 284.20 406.85 280.33 C 405.56 280.53 404.27 280.74 402.99 280.95 C 402.80 278.08 402.66 275.21 402.57 272.35 C 402.29 272.04 401.72 271.42 401.44 271.11 Z" />
	<path fill="#232222" opacity="1.00" d=" M 82.98 166.98 C 87.05 165.04 91.14 162.98 95.58 162.04 C 99.49 184.66 103.87 207.21 107.90 229.81 C 101.08 233.50 93.53 235.74 87.03 240.04 C 79.14 245.14 70.49 249.14 63.35 255.33 C 59.84 258.34 56.13 261.10 52.72 264.21 C 54.13 264.97 55.56 265.68 57.03 266.34 C 54.87 267.88 52.89 269.68 51.31 271.82 C 49.84 266.79 45.42 263.42 43.45 258.65 C 42.58 253.89 43.19 249.00 43.19 244.20 C 45.94 242.24 49.09 240.86 51.67 238.67 C 54.81 235.13 57.28 230.89 58.25 226.22 C 59.11 222.17 60.90 218.15 60.26 213.94 C 59.05 205.11 57.05 196.23 57.30 187.32 C 64.45 178.95 73.44 172.38 82.98 166.98 Z" />
	<path fill="#232222" opacity="1.00" d=" M 247.66 200.33 C 254.06 199.30 260.55 199.90 267.00 199.77 C 280.71 199.21 294.27 201.76 307.86 203.19 C 316.17 205.07 324.21 208.10 332.20 211.06 C 317.78 226.52 305.73 243.98 291.83 259.85 C 289.10 258.87 287.68 255.34 285.63 253.23 C 282.65 252.52 279.51 254.74 280.31 258.00 C 281.67 269.78 283.65 281.71 288.46 292.64 C 290.10 296.58 291.28 300.80 293.88 304.26 C 293.57 305.52 293.29 306.79 293.00 308.06 C 291.20 314.99 289.57 322.08 286.06 328.39 C 284.09 326.90 282.14 325.38 280.18 323.88 C 279.33 314.63 277.96 305.39 275.44 296.44 C 272.57 285.69 270.41 274.76 266.93 264.19 C 263.23 251.94 259.63 239.66 255.39 227.59 C 262.89 228.81 270.52 230.28 278.13 229.13 C 272.42 221.18 265.02 214.73 257.94 208.07 C 254.74 205.20 251.17 202.78 247.66 200.33 Z" />
	</g>
	<g id="#fec775ff">
	<path fill="#fec775" opacity="1.00" d=" M 203.22 206.39 C 215.52 204.25 227.91 202.57 240.23 200.51 C 242.67 200.28 245.25 199.47 247.66 200.33 C 251.17 202.78 254.74 205.20 257.94 208.07 C 265.02 214.73 272.42 221.18 278.13 229.13 C 270.52 230.28 262.89 228.81 255.39 227.59 C 259.63 239.66 263.23 251.94 266.93 264.19 C 270.41 274.76 272.57 285.69 275.44 296.44 C 277.96 305.39 279.33 314.63 280.18 323.88 C 280.16 324.34 280.13 325.25 280.12 325.71 C 260.62 318.07 242.81 306.92 224.64 296.67 C 230.21 284.49 233.76 271.38 234.82 258.03 C 235.21 256.00 234.07 254.33 232.89 252.83 C 228.04 252.36 225.98 257.30 222.98 260.14 C 211.74 248.28 201.58 235.46 190.86 223.14 C 187.74 219.70 184.26 216.60 181.38 212.95 C 188.53 210.39 195.88 208.38 203.22 206.39 Z" />
	<path fill="#fec775" opacity="1.00" d=" M 113.19 237.29 C 114.86 236.80 116.31 235.82 117.80 234.96 C 114.45 241.36 110.50 247.61 108.88 254.74 C 112.30 256.15 115.68 257.67 119.07 259.16 C 117.27 262.58 115.81 266.20 115.25 270.04 C 113.14 284.97 115.25 301.20 124.47 313.55 C 127.04 317.61 130.95 320.52 133.98 324.16 C 135.01 330.99 135.10 337.93 136.28 344.74 C 137.46 352.24 139.67 359.56 140.26 367.15 C 130.92 361.62 121.63 355.77 113.71 348.29 C 107.23 342.27 103.44 333.98 96.97 327.97 C 98.64 333.14 102.56 337.01 105.70 341.29 C 109.37 346.34 113.64 351.06 116.05 356.90 C 103.13 354.51 92.09 345.97 84.43 335.56 C 75.54 325.10 68.98 312.89 63.78 300.25 C 62.68 297.04 60.88 293.84 57.43 292.76 C 53.89 292.78 50.54 294.34 47.17 295.28 C 40.96 297.54 34.38 298.31 28.00 299.95 C 34.84 289.84 43.99 281.57 51.31 271.82 C 52.89 269.68 54.87 267.88 57.03 266.34 C 69.20 257.04 82.80 249.73 96.95 243.95 C 102.35 241.70 107.56 238.95 113.19 237.29 M 106.53 274.89 C 106.20 276.46 105.91 278.06 105.64 279.65 C 104.11 279.85 102.59 280.03 101.07 280.21 C 98.76 284.92 100.35 290.27 99.88 295.28 C 92.81 291.84 91.21 283.19 86.04 277.84 C 86.17 284.40 90.64 289.60 94.35 294.60 C 96.44 297.49 99.35 299.88 103.02 300.24 C 103.72 294.86 102.51 289.49 102.92 284.10 C 104.59 284.34 106.27 284.59 107.95 284.84 C 107.82 281.50 108.20 277.93 106.53 274.89 Z" />
	</g>
	<g id="#b78361ff">
	<path fill="#b78361" opacity="1.00" d=" M 106.53 274.89 C 108.20 277.93 107.82 281.50 107.95 284.84 C 106.27 284.59 104.59 284.34 102.92 284.10 C 102.51 289.49 103.72 294.86 103.02 300.24 C 99.35 299.88 96.44 297.49 94.35 294.60 C 90.64 289.60 86.17 284.40 86.04 277.84 C 91.21 283.19 92.81 291.84 99.88 295.28 C 100.35 290.27 98.76 284.92 101.07 280.21 C 102.59 280.03 104.11 279.85 105.64 279.65 C 105.91 278.06 106.20 276.46 106.53 274.89 Z" />
	<path fill="#b78361" opacity="1.00" d=" M 57.43 292.76 C 60.88 293.84 62.68 297.04 63.78 300.25 C 68.98 312.89 75.54 325.10 84.43 335.56 C 92.09 345.97 103.13 354.51 116.05 356.90 C 113.64 351.06 109.37 346.34 105.70 341.29 C 102.56 337.01 98.64 333.14 96.97 327.97 C 103.44 333.98 107.23 342.27 113.71 348.29 C 121.63 355.77 130.92 361.62 140.26 367.15 C 139.67 359.56 137.46 352.24 136.28 344.74 C 135.10 337.93 135.01 330.99 133.98 324.16 C 145.21 332.84 159.81 336.63 173.88 335.66 C 174.56 336.03 175.91 336.76 176.59 337.13 C 167.94 342.19 158.58 335.91 149.72 335.01 C 151.38 339.06 156.57 338.57 160.11 339.75 C 168.18 342.01 176.95 341.15 184.46 337.47 C 187.56 335.64 190.19 333.14 192.98 330.89 C 193.47 331.24 194.45 331.92 194.94 332.27 C 194.06 334.63 193.13 336.97 192.21 339.32 C 199.08 336.49 203.25 329.77 205.84 323.12 C 205.09 323.05 203.59 322.92 202.84 322.85 C 206.66 318.28 211.00 314.14 214.11 309.01 C 215.13 310.10 215.64 312.94 217.58 311.66 C 218.47 308.97 218.78 306.13 219.22 303.34 C 219.86 303.22 221.12 302.99 221.75 302.88 C 222.69 300.80 223.66 298.73 224.64 296.67 C 242.81 306.92 260.62 318.07 280.12 325.71 C 280.13 325.25 280.16 324.34 280.18 323.88 C 282.14 325.38 284.09 326.90 286.06 328.39 C 289.57 322.08 291.20 314.99 293.00 308.06 C 293.71 309.10 294.41 310.16 295.20 311.16 C 296.54 310.61 297.12 309.22 297.90 308.11 C 300.57 312.78 303.99 316.95 307.59 320.92 C 307.59 322.55 307.27 324.31 308.13 325.80 C 310.95 331.08 314.92 336.13 320.67 338.35 C 319.29 335.59 317.73 332.65 318.85 329.51 C 320.28 330.24 321.82 330.86 323.04 331.96 C 328.23 337.96 336.42 339.75 344.01 340.10 C 350.03 339.79 356.02 338.53 361.77 336.73 C 363.16 336.46 363.66 335.10 364.35 334.05 C 357.74 334.63 351.68 337.97 345.01 338.07 C 342.23 338.16 339.50 337.55 336.83 336.85 C 337.41 336.53 338.55 335.90 339.12 335.58 C 349.23 336.43 359.29 333.83 368.34 329.44 C 369.34 330.32 370.35 331.20 371.37 332.09 C 370.73 344.79 368.58 357.40 368.12 370.11 C 367.14 370.46 366.16 370.79 365.17 371.11 C 366.15 362.40 367.48 353.72 367.76 344.96 C 361.99 345.47 356.87 348.70 351.06 348.97 C 339.36 350.15 327.37 348.18 316.66 343.33 C 309.32 339.47 303.77 333.13 298.88 326.57 C 295.68 331.38 293.09 336.65 288.88 340.70 C 278.76 339.51 269.21 335.74 259.72 332.23 C 255.02 330.50 250.13 329.33 245.44 327.55 C 237.95 324.63 230.66 321.00 222.79 319.21 C 219.28 318.55 217.42 322.31 215.69 324.67 C 210.26 333.28 203.83 341.77 194.71 346.72 C 180.33 353.48 163.92 354.40 148.38 352.13 C 147.51 359.11 147.35 366.18 146.01 373.09 C 138.34 371.74 131.32 368.25 124.71 364.27 C 120.02 361.24 114.11 361.45 109.34 358.63 C 99.23 352.85 89.03 346.52 81.86 337.14 C 74.64 327.60 67.68 317.86 61.24 307.78 C 58.48 303.20 54.90 299.20 50.80 295.78 C 52.96 294.65 55.18 293.67 57.43 292.76 M 176.81 343.82 C 168.81 345.36 159.87 346.52 152.39 342.50 C 149.74 341.16 147.09 339.25 143.95 339.93 C 144.36 343.14 147.43 344.63 149.91 346.11 C 155.04 349.16 161.24 349.07 167.01 349.21 C 172.58 349.50 177.73 346.95 182.56 344.51 C 185.96 342.40 189.76 340.07 191.18 336.12 C 186.61 339.07 182.33 342.81 176.81 343.82 Z" />
	<path fill="#b78361" opacity="1.00" d=" M 446.15 295.08 C 449.36 294.83 452.60 294.92 455.78 295.49 C 456.86 296.20 457.92 296.97 458.99 297.73 C 455.99 297.95 452.38 297.71 450.28 300.30 C 441.75 309.59 438.98 322.50 431.57 332.55 C 423.32 342.46 413.43 351.45 401.31 356.30 C 391.86 360.27 382.82 365.32 372.93 368.13 C 378.44 364.16 384.81 361.48 389.91 356.94 C 396.15 356.87 402.24 354.98 407.23 351.19 C 415.35 345.17 424.28 339.20 428.83 329.81 C 435.11 318.49 439.88 306.40 446.15 295.08 Z" />
	<path fill="#b78361" opacity="1.00" d=" M 51.11 331.13 C 56.88 325.20 68.93 327.85 70.98 336.10 C 72.08 342.81 63.07 346.05 64.35 352.72 C 65.00 357.23 66.62 362.59 71.23 364.47 C 73.38 365.21 74.71 367.09 75.96 368.89 C 72.11 372.35 66.37 371.74 61.82 370.21 C 56.93 368.94 54.42 364.16 51.39 360.56 C 47.27 355.31 45.07 348.89 44.64 342.26 C 45.60 342.29 46.56 342.34 47.52 342.40 C 48.43 338.60 48.59 334.31 51.11 331.13 Z" />
	<path fill="#b78361" opacity="1.00" d=" M 438.22 333.36 C 442.81 328.57 452.59 329.17 455.39 335.67 C 458.43 340.84 457.07 347.16 459.62 352.49 C 458.33 364.50 443.64 371.69 432.92 366.88 C 433.04 365.61 432.31 363.68 433.94 363.09 C 437.58 361.07 442.05 358.03 441.61 353.29 C 441.67 346.44 437.41 340.19 438.22 333.36 Z" />
	</g>
	<g id="#eed1a1ff">
	<path fill="#eed1a1" opacity="1.00" d=" M 23.36 326.24 C 27.64 312.78 37.99 301.59 50.80 295.78 C 54.90 299.20 58.48 303.20 61.24 307.78 C 67.68 317.86 74.64 327.60 81.86 337.14 C 89.03 346.52 99.23 352.85 109.34 358.63 C 114.11 361.45 120.02 361.24 124.71 364.27 C 131.32 368.25 138.34 371.74 146.01 373.09 C 147.35 366.18 147.51 359.11 148.38 352.13 C 163.92 354.40 180.33 353.48 194.71 346.72 C 203.83 341.77 210.26 333.28 215.69 324.67 C 217.42 322.31 219.28 318.55 222.79 319.21 C 230.66 321.00 237.95 324.63 245.44 327.55 C 250.13 329.33 255.02 330.50 259.72 332.23 C 269.21 335.74 278.76 339.51 288.88 340.70 C 293.09 336.65 295.68 331.38 298.88 326.57 C 303.77 333.13 309.32 339.47 316.66 343.33 C 327.37 348.18 339.36 350.15 351.06 348.97 C 356.87 348.70 361.99 345.47 367.76 344.96 C 367.48 353.72 366.15 362.40 365.17 371.11 C 366.16 370.79 367.14 370.46 368.12 370.11 C 369.49 369.59 370.84 369.00 372.20 368.42 L 372.93 368.13 C 382.82 365.32 391.86 360.27 401.31 356.30 C 413.43 351.45 423.32 342.46 431.57 332.55 C 438.98 322.50 441.75 309.59 450.28 300.30 C 452.38 297.71 455.99 297.95 458.99 297.73 C 472.80 305.09 482.79 319.37 484.68 334.95 C 486.43 347.85 482.67 361.39 474.54 371.56 C 465.24 383.68 450.21 390.99 434.98 391.29 C 422.77 391.70 410.84 387.32 401.09 380.12 C 368.65 405.92 328.20 420.32 287.32 425.31 C 231.69 431.79 173.02 421.82 125.23 391.73 C 118.82 387.76 112.77 383.24 106.87 378.55 C 98.11 385.66 87.37 390.47 76.03 391.16 C 59.13 392.50 41.83 384.93 31.49 371.47 C 21.44 359.00 18.46 341.43 23.36 326.24 M 45.73 331.62 C 44.77 335.07 44.89 338.71 44.64 342.26 C 45.07 348.89 47.27 355.31 51.39 360.56 C 54.42 364.16 56.93 368.94 61.82 370.21 C 66.37 371.74 72.11 372.35 75.96 368.89 C 74.71 367.09 73.38 365.21 71.23 364.47 C 68.57 360.55 66.28 355.99 66.28 351.17 C 66.54 345.16 75.18 344.09 74.80 337.95 C 75.15 332.05 70.32 327.88 65.69 325.19 C 58.67 323.17 49.58 324.75 45.73 331.62 M 434.63 334.99 C 433.67 339.98 436.44 344.26 438.45 348.54 C 440.52 353.96 436.24 358.59 433.94 363.09 C 432.31 363.68 433.04 365.61 432.92 366.88 C 443.64 371.69 458.33 364.50 459.62 352.49 C 461.15 348.68 462.04 344.45 461.60 340.36 C 459.83 335.41 457.23 330.18 452.61 327.34 C 445.99 324.56 436.56 327.58 434.63 334.99 M 186.27 377.09 C 191.13 375.03 195.62 372.03 200.86 370.94 C 202.45 376.28 203.52 381.76 205.24 387.07 C 210.65 384.26 214.17 379.08 218.70 375.17 C 221.48 383.14 224.19 391.15 227.38 398.97 C 232.10 389.91 235.50 380.03 242.10 372.04 C 248.39 377.36 254.18 383.24 260.25 388.79 C 266.79 383.42 272.50 377.09 279.13 371.84 C 282.10 372.72 283.98 375.86 285.55 378.42 C 288.95 384.76 291.92 391.38 296.06 397.29 C 301.19 391.20 302.55 383.18 305.25 375.93 C 309.88 378.26 313.71 381.85 318.19 384.43 C 319.95 379.71 320.54 374.67 322.09 369.88 C 327.48 371.78 332.33 374.89 337.67 376.93 C 337.67 370.22 338.44 362.56 334.11 356.91 C 334.49 361.58 334.78 366.27 334.67 370.97 C 330.11 368.35 325.39 365.80 320.16 364.84 C 319.50 369.20 319.08 373.61 317.95 377.88 C 312.93 375.27 308.58 371.62 303.84 368.59 C 300.67 375.14 300.55 382.75 296.91 389.12 C 291.83 380.65 288.15 371.02 281.07 363.94 C 276.84 367.74 272.65 371.60 268.59 375.59 C 265.86 378.23 263.41 381.22 260.19 383.32 C 256.39 379.29 252.87 374.99 249.19 370.85 C 247.01 368.43 245.18 365.59 242.36 363.84 C 240.87 365.52 239.28 367.15 238.08 369.07 C 234.19 376.04 230.87 383.32 227.16 390.38 C 224.63 382.97 223.17 375.26 220.83 367.80 C 220.23 367.95 219.03 368.24 218.43 368.39 C 215.06 371.28 212.47 374.94 209.25 378.00 C 208.59 372.65 208.39 367.26 207.92 361.89 C 201.97 363.25 197.08 366.97 191.68 369.57 C 191.38 365.03 191.76 360.49 191.68 355.95 C 189.60 362.92 188.01 370.03 186.27 377.09 Z" />
	</g>
	<g id="#7d5a42ff">
	<path fill="#7d5a42" opacity="1.00" d=" M 217.36 302.22 C 217.82 302.50 218.76 303.06 219.22 303.34 C 218.78 306.13 218.47 308.97 217.58 311.66 C 215.64 312.94 215.13 310.10 214.11 309.01 C 215.30 306.80 216.37 304.53 217.36 302.22 Z" />
	<path fill="#7d5a42" opacity="1.00" d=" M 294.11 303.45 C 296.67 302.84 296.66 306.61 297.90 308.11 C 297.12 309.22 296.54 310.61 295.20 311.16 C 294.41 310.16 293.71 309.10 293.00 308.06 C 293.29 306.79 293.57 305.52 293.88 304.26 L 294.11 303.45 Z" />
	<path fill="#7d5a42" opacity="1.00" d=" M 307.59 320.92 C 311.20 323.97 315.02 326.74 318.85 329.51 C 317.73 332.65 319.29 335.59 320.67 338.35 C 314.92 336.13 310.95 331.08 308.13 325.80 C 307.27 324.31 307.59 322.55 307.59 320.92 Z" />
	<path fill="#7d5a42" opacity="1.00" d=" M 193.21 329.19 C 196.59 327.34 199.40 324.58 202.84 322.85 C 203.59 322.92 205.09 323.05 205.84 323.12 C 203.25 329.77 199.08 336.49 192.21 339.32 C 193.13 336.97 194.06 334.63 194.94 332.27 C 194.45 331.92 193.47 331.24 192.98 330.89 C 190.19 333.14 187.56 335.64 184.46 337.47 C 176.95 341.15 168.18 342.01 160.11 339.75 C 156.57 338.57 151.38 339.06 149.72 335.01 C 158.58 335.91 167.94 342.19 176.59 337.13 C 175.91 336.76 174.56 336.03 173.88 335.66 C 180.48 334.06 187.28 332.68 193.21 329.19 Z" />
	<path fill="#7d5a42" opacity="1.00" d=" M 45.73 331.62 C 49.58 324.75 58.67 323.17 65.69 325.19 C 70.32 327.88 75.15 332.05 74.80 337.95 C 75.18 344.09 66.54 345.16 66.28 351.17 C 66.28 355.99 68.57 360.55 71.23 364.47 C 66.62 362.59 65.00 357.23 64.35 352.72 C 63.07 346.05 72.08 342.81 70.98 336.10 C 68.93 327.85 56.88 325.20 51.11 331.13 C 48.59 334.31 48.43 338.60 47.52 342.40 C 46.56 342.34 45.60 342.29 44.64 342.26 C 44.89 338.71 44.77 335.07 45.73 331.62 Z" />
	<path fill="#7d5a42" opacity="1.00" d=" M 434.63 334.99 C 436.56 327.58 445.99 324.56 452.61 327.34 C 457.23 330.18 459.83 335.41 461.60 340.36 C 462.04 344.45 461.15 348.68 459.62 352.49 C 457.07 347.16 458.43 340.84 455.39 335.67 C 452.59 329.17 442.81 328.57 438.22 333.36 C 437.41 340.19 441.67 346.44 441.61 353.29 C 442.05 358.03 437.58 361.07 433.94 363.09 C 436.24 358.59 440.52 353.96 438.45 348.54 C 436.44 344.26 433.67 339.98 434.63 334.99 Z" />
	<path fill="#7d5a42" opacity="1.00" d=" M 323.04 331.96 C 328.38 333.24 333.66 334.83 339.12 335.58 C 338.55 335.90 337.41 336.53 336.83 336.85 C 339.50 337.55 342.23 338.16 345.01 338.07 C 351.68 337.97 357.74 334.63 364.35 334.05 C 363.66 335.10 363.16 336.46 361.77 336.73 C 356.02 338.53 350.03 339.79 344.01 340.10 C 336.42 339.75 328.23 337.96 323.04 331.96 Z" />
	<path fill="#7d5a42" opacity="1.00" d=" M 176.81 343.82 C 182.33 342.81 186.61 339.07 191.18 336.12 C 189.76 340.07 185.96 342.40 182.56 344.51 C 177.73 346.95 172.58 349.50 167.01 349.21 C 161.24 349.07 155.04 349.16 149.91 346.11 C 147.43 344.63 144.36 343.14 143.95 339.93 C 147.09 339.25 149.74 341.16 152.39 342.50 C 159.87 346.52 168.81 345.36 176.81 343.82 Z" />
	<path fill="#7d5a42" opacity="1.00" d=" M 186.27 377.09 C 188.01 370.03 189.60 362.92 191.68 355.95 C 191.76 360.49 191.38 365.03 191.68 369.57 C 197.08 366.97 201.97 363.25 207.92 361.89 C 208.39 367.26 208.59 372.65 209.25 378.00 C 212.47 374.94 215.06 371.28 218.43 368.39 C 219.03 368.24 220.23 367.95 220.83 367.80 C 223.17 375.26 224.63 382.97 227.16 390.38 C 230.87 383.32 234.19 376.04 238.08 369.07 C 239.28 367.15 240.87 365.52 242.36 363.84 C 245.18 365.59 247.01 368.43 249.19 370.85 C 252.87 374.99 256.39 379.29 260.19 383.32 C 263.41 381.22 265.86 378.23 268.59 375.59 C 272.65 371.60 276.84 367.74 281.07 363.94 C 288.15 371.02 291.83 380.65 296.91 389.12 C 300.55 382.75 300.67 375.14 303.84 368.59 C 308.58 371.62 312.93 375.27 317.95 377.88 C 319.08 373.61 319.50 369.20 320.16 364.84 C 325.39 365.80 330.11 368.35 334.67 370.97 C 334.78 366.27 334.49 361.58 334.11 356.91 C 338.44 362.56 337.67 370.22 337.67 376.93 C 332.33 374.89 327.48 371.78 322.09 369.88 C 320.54 374.67 319.95 379.71 318.19 384.43 C 313.71 381.85 309.88 378.26 305.25 375.93 C 302.55 383.18 301.19 391.20 296.06 397.29 C 291.92 391.38 288.95 384.76 285.55 378.42 C 283.98 375.86 282.10 372.72 279.13 371.84 C 272.50 377.09 266.79 383.42 260.25 388.79 C 254.18 383.24 248.39 377.36 242.10 372.04 C 235.50 380.03 232.10 389.91 227.38 398.97 C 224.19 391.15 221.48 383.14 218.70 375.17 C 214.17 379.08 210.65 384.26 205.24 387.07 C 203.52 381.76 202.45 376.28 200.86 370.94 C 195.62 372.03 191.13 375.03 186.27 377.09 Z" />
	</g>
</svg>
