<?xml version="1.0" encoding="UTF-8" ?>
<!DOCTYPE svg PUBLIC "-//W3C//DTD SVG 1.1//EN" "http://www.w3.org/Graphics/SVG/1.1/DTD/svg11.dtd">
<svg width="850pt" height="400pt" viewBox="0 0 850 400" version="1.1" xmlns="http://www.w3.org/2000/svg">
  <g id="#9195b4ff">
    <path fill="transparent" opacity="1.00" d=" M 0.00 0.00 L 850.00 0.00 L 850.00 400.00 L 0.00 400.00 L 0.00 0.00 M 387.24 42.18 C 379.15 43.29 372.03 47.45 364.62 50.55 C 356.22 54.14 348.57 59.19 340.55 63.52 C 330.44 68.58 323.41 77.73 314.97 84.97 C 308.44 90.61 304.18 98.21 298.98 104.98 C 292.22 113.49 287.58 123.63 285.31 134.24 C 284.69 136.95 283.79 139.74 281.67 141.68 C 276.24 146.92 270.56 151.89 264.90 156.88 C 263.47 158.26 261.72 159.77 261.79 161.95 C 261.68 168.41 262.98 174.78 263.91 181.14 C 265.15 187.08 263.34 193.28 260.38 198.43 C 257.93 202.71 250.78 203.39 250.66 208.98 C 250.41 212.93 250.23 216.97 250.95 220.89 C 251.98 224.28 254.32 227.06 256.19 230.02 C 250.74 237.54 243.51 243.68 238.56 251.56 C 236.47 254.83 240.35 256.96 242.59 258.56 C 238.91 263.91 235.37 269.54 234.00 275.98 C 230.55 288.99 233.71 303.45 242.00 314.01 C 251.05 325.81 266.14 332.47 280.95 331.48 C 290.06 331.33 298.74 327.88 306.19 322.80 C 317.25 330.38 328.46 337.88 340.85 343.14 C 388.47 364.05 443.77 366.30 493.16 350.24 C 508.89 345.15 524.05 338.06 537.68 328.65 C 540.01 327.12 542.15 325.09 544.90 324.35 C 549.12 325.96 552.96 328.51 557.38 329.68 C 575.06 335.39 595.88 328.91 607.23 314.21 C 616.14 303.17 619.02 287.71 614.88 274.16 C 612.78 265.97 607.46 259.16 601.67 253.20 C 603.64 252.31 605.77 251.65 607.50 250.31 C 609.60 247.99 608.05 244.68 606.34 242.65 C 602.93 238.68 598.60 235.65 594.88 232.00 C 599.68 226.42 598.43 218.73 598.05 211.98 C 597.65 207.11 594.49 203.14 591.31 199.70 C 587.61 195.97 585.92 190.02 588.07 185.09 C 590.11 180.03 592.07 174.85 592.47 169.35 C 593.11 164.33 590.55 159.41 587.05 155.96 C 581.79 151.12 575.81 147.16 570.15 142.82 C 567.46 140.96 567.11 137.52 566.38 134.61 C 564.69 125.39 559.79 117.27 556.43 108.63 C 554.01 102.21 549.01 97.38 544.84 92.10 C 540.98 87.37 537.38 82.32 532.48 78.57 C 526.84 74.20 521.26 69.76 515.72 65.27 C 510.54 61.03 504.28 58.54 498.39 55.51 C 492.26 52.54 486.37 48.84 479.67 47.26 C 468.75 44.60 457.86 41.82 446.96 39.08 C 439.05 37.77 430.96 38.22 422.98 37.66 C 410.84 36.63 399.11 40.43 387.24 42.18 Z"></path>
  </g>
  <g id="#1c213dff">
    <path fill="#1c213d" opacity="1.00" d=" M 387.24 42.18 C 399.11 40.43 410.84 36.63 422.98 37.66 C 430.96 38.22 439.05 37.77 446.96 39.08 C 457.86 41.82 468.75 44.60 479.67 47.26 C 486.37 48.84 492.26 52.54 498.39 55.51 C 504.28 58.54 510.54 61.03 515.72 65.27 C 521.26 69.76 526.84 74.20 532.48 78.57 C 537.38 82.32 540.98 87.37 544.84 92.10 C 549.01 97.38 554.01 102.21 556.43 108.63 C 559.79 117.27 564.69 125.39 566.38 134.61 C 567.11 137.52 567.46 140.96 570.15 142.82 C 575.81 147.16 581.79 151.12 587.05 155.96 C 590.55 159.41 593.11 164.33 592.47 169.35 C 592.07 174.85 590.11 180.03 588.07 185.09 C 585.92 190.02 587.61 195.97 591.31 199.70 C 594.49 203.14 597.65 207.11 598.05 211.98 C 598.43 218.73 599.68 226.42 594.88 232.00 C 598.60 235.65 602.93 238.68 606.34 242.65 C 608.05 244.68 609.60 247.99 607.50 250.31 C 605.77 251.65 603.64 252.31 601.67 253.20 C 607.46 259.16 612.78 265.97 614.88 274.16 C 619.02 287.71 616.14 303.17 607.23 314.21 C 595.88 328.91 575.06 335.39 557.38 329.68 C 552.96 328.51 549.12 325.96 544.90 324.35 C 542.15 325.09 540.01 327.12 537.68 328.65 C 524.05 338.06 508.89 345.15 493.16 350.24 C 443.77 366.30 388.47 364.05 340.85 343.14 C 328.46 337.88 317.25 330.38 306.19 322.80 C 298.74 327.88 290.06 331.33 280.95 331.48 C 266.14 332.47 251.05 325.81 242.00 314.01 C 233.71 303.45 230.55 288.99 234.00 275.98 C 235.37 269.54 238.91 263.91 242.59 258.56 C 240.35 256.96 236.47 254.83 238.56 251.56 C 243.51 243.68 250.74 237.54 256.19 230.02 C 254.32 227.06 251.98 224.28 250.95 220.89 C 250.23 216.97 250.41 212.93 250.66 208.98 C 250.78 203.39 257.93 202.71 260.38 198.43 C 263.34 193.28 265.15 187.08 263.91 181.14 C 262.98 174.78 261.68 168.41 261.79 161.95 C 261.72 159.77 263.47 158.26 264.90 156.88 C 270.56 151.89 276.24 146.92 281.67 141.68 C 283.79 139.74 284.69 136.95 285.31 134.24 C 287.58 123.63 292.22 113.49 298.98 104.98 C 304.18 98.21 308.44 90.61 314.97 84.97 C 323.41 77.73 330.44 68.58 340.55 63.52 C 348.57 59.19 356.22 54.14 364.62 50.55 C 372.03 47.45 379.15 43.29 387.24 42.18 M 388.57 46.39 C 380.93 47.34 374.26 51.32 367.28 54.23 C 360.43 57.11 354.09 61.00 347.57 64.55 C 343.18 67.08 338.55 69.33 334.73 72.73 C 327.47 79.46 319.95 85.93 313.24 93.23 C 309.07 98.16 305.63 103.66 301.69 108.77 C 294.66 117.91 290.64 128.97 288.34 140.18 C 302.14 132.77 316.66 126.75 331.38 121.43 C 338.50 118.71 345.63 115.98 353.01 114.05 C 363.33 111.33 373.36 107.38 384.00 106.02 C 402.45 103.28 420.95 99.06 439.71 100.55 C 453.25 101.02 466.91 101.76 480.13 104.96 C 494.24 109.76 508.19 115.06 522.36 119.68 C 530.53 122.42 538.10 126.60 545.98 130.04 C 551.62 132.70 556.79 136.33 562.73 138.38 C 561.61 129.71 557.11 122.12 553.93 114.13 C 551.92 109.12 549.39 104.27 545.79 100.20 C 540.00 93.65 535.27 86.05 528.15 80.80 C 519.70 74.53 512.20 66.73 502.38 62.53 C 493.36 58.50 485.03 52.68 475.22 50.66 C 465.59 48.47 456.09 45.74 446.45 43.58 C 438.35 42.48 430.14 42.61 422.00 41.92 C 410.65 41.18 399.69 44.78 388.57 46.39 M 392.70 110.63 C 383.91 111.78 375.41 114.38 367.05 117.23 C 367.61 123.33 368.62 129.38 369.50 135.44 C 371.39 147.99 372.65 160.65 375.01 173.12 C 382.60 172.43 390.03 170.70 397.56 169.63 C 405.36 168.41 413.27 167.88 420.96 165.99 C 419.78 146.31 419.16 126.61 417.83 106.94 C 409.41 107.84 401.09 109.50 392.70 110.63 M 423.34 107.10 C 424.38 126.74 425.07 146.38 426.12 166.02 C 444.21 166.33 462.44 166.84 480.19 170.70 C 483.22 155.89 484.45 140.78 487.00 125.89 C 487.64 122.41 487.93 118.87 488.00 115.33 C 481.80 113.49 475.80 110.95 469.47 109.60 C 454.22 107.24 438.77 106.22 423.34 107.10 M 493.39 117.80 C 491.93 129.08 490.18 140.33 488.53 151.58 C 487.65 158.65 486.07 165.63 485.96 172.78 C 488.95 173.93 491.89 175.42 495.11 175.84 C 498.15 175.85 501.02 174.63 504.01 174.19 C 509.20 173.27 514.57 175.15 518.64 178.36 C 522.38 181.28 524.60 185.88 528.94 188.08 C 533.20 190.37 537.74 192.10 542.19 193.99 C 544.98 175.50 546.47 156.83 548.66 138.26 C 533.79 131.11 517.97 126.29 502.62 120.36 C 499.63 119.20 496.52 118.43 493.39 117.80 M 324.56 130.43 C 316.85 132.66 309.63 136.21 302.26 139.31 C 305.45 157.59 308.74 175.87 312.29 194.09 C 315.68 193.18 319.38 192.48 322.04 189.99 C 325.45 186.72 327.61 182.31 331.34 179.33 C 335.98 175.61 342.03 173.44 348.01 174.02 C 351.52 174.33 354.69 175.96 358.01 176.99 C 361.97 178.38 365.89 176.07 369.61 174.94 C 367.31 156.22 364.45 137.57 361.73 118.92 C 349.18 122.20 336.97 126.66 324.56 130.43 M 554.08 140.82 C 552.16 151.80 551.47 162.95 549.92 173.99 C 549.19 181.60 547.78 189.16 547.88 196.83 C 554.54 200.54 561.55 203.72 567.59 208.44 C 573.93 213.35 580.58 218.13 585.55 224.50 C 586.61 225.50 585.78 226.64 585.27 227.67 C 582.54 224.00 578.49 221.75 574.80 219.21 C 570.79 216.57 566.91 213.76 562.96 211.04 C 557.79 207.42 551.72 205.53 546.05 202.89 C 542.08 201.04 538.05 199.32 533.87 197.98 C 536.24 204.29 539.90 210.05 541.81 216.54 C 539.92 217.50 538.03 218.45 536.14 219.41 C 543.10 235.49 540.39 255.51 528.65 268.67 C 526.18 271.49 522.77 273.33 520.35 276.20 C 515.74 278.01 511.27 280.30 506.39 281.33 C 501.79 282.31 497.05 282.30 492.37 282.59 C 489.32 281.17 486.03 280.35 482.66 280.26 C 481.20 279.22 479.67 278.26 478.16 277.31 C 475.21 275.19 472.24 273.09 469.17 271.16 C 465.42 266.24 461.67 261.34 458.31 256.15 L 458.11 256.86 C 452.82 249.41 450.51 240.36 448.48 231.59 C 447.30 226.05 446.09 220.18 448.17 214.68 C 451.18 216.25 453.72 218.53 455.95 221.08 C 467.10 208.25 476.86 194.28 488.37 181.75 C 481.85 178.80 475.01 176.40 467.96 175.10 C 458.35 173.89 448.71 172.55 439.00 172.77 C 433.45 172.91 427.69 171.94 422.38 174.04 C 419.71 171.96 416.16 172.78 413.09 173.15 C 397.44 175.66 381.53 177.34 366.61 183.04 C 378.50 195.17 388.48 209.02 400.40 221.11 C 402.00 219.39 403.52 217.56 405.42 216.15 C 406.98 214.72 410.05 215.94 409.85 218.19 C 409.72 229.52 405.93 240.39 401.95 250.87 C 400.79 253.00 399.23 254.88 397.25 256.28 C 393.73 258.82 391.97 262.92 389.10 266.06 C 387.90 267.63 386.21 268.99 385.74 270.98 C 383.24 272.33 380.88 273.91 378.54 275.51 C 370.48 281.03 360.37 283.00 350.73 282.08 C 342.86 281.10 335.69 277.56 328.72 274.02 C 327.94 271.54 325.46 270.04 323.85 268.10 C 318.14 262.32 314.68 254.61 313.35 246.65 C 311.97 237.94 312.22 228.67 316.15 220.61 C 313.48 219.21 310.77 217.91 308.03 216.64 C 309.75 211.19 312.41 206.13 315.18 201.16 C 297.65 208.18 279.72 215.25 264.86 227.21 C 264.35 226.17 263.84 225.13 263.34 224.09 C 270.43 217.36 278.56 211.88 287.06 207.09 C 293.34 202.88 300.43 200.23 307.15 196.87 C 306.40 190.27 304.97 183.77 303.77 177.25 C 301.41 165.49 299.75 153.59 296.92 141.94 C 286.98 144.82 278.27 150.80 270.66 157.66 C 269.06 159.33 266.86 160.86 266.36 163.22 C 266.05 170.58 268.29 177.75 268.73 185.06 C 268.69 189.96 267.06 194.73 265.09 199.16 C 263.16 203.46 258.94 205.91 255.12 208.31 C 254.90 212.11 254.38 216.02 255.32 219.77 C 256.44 223.76 259.51 226.74 262.35 229.59 C 256.14 237.72 248.68 244.84 242.77 253.20 C 250.23 252.47 257.22 249.71 264.43 247.91 C 263.01 248.57 261.72 249.48 260.39 250.29 C 249.33 255.69 240.58 265.93 237.97 278.07 C 235.14 290.29 238.52 303.73 246.92 313.07 C 255.91 323.57 270.34 328.86 284.00 327.00 C 292.41 326.18 299.87 321.92 306.66 317.18 C 328.83 335.21 355.88 346.61 383.78 352.20 C 406.47 356.85 429.92 357.46 452.90 354.78 C 485.93 350.81 518.27 338.84 544.67 318.38 C 553.25 324.96 564.22 328.34 575.02 327.14 C 587.32 326.00 598.99 319.14 605.76 308.78 C 613.22 297.83 614.50 283.04 609.09 270.95 C 605.53 262.51 598.71 255.98 591.08 251.15 C 590.00 250.53 588.93 249.89 587.83 249.34 C 593.36 249.44 598.92 249.08 604.32 247.80 C 600.09 240.54 591.87 236.98 587.11 230.14 C 589.51 228.78 593.18 227.99 593.73 224.83 C 594.33 220.38 594.30 215.80 593.46 211.38 C 592.02 205.29 585.78 201.97 583.93 196.07 C 582.84 192.85 581.81 189.27 582.98 185.92 C 584.77 180.62 587.57 175.57 587.95 169.89 C 588.29 166.68 587.56 163.16 585.06 160.95 C 581.14 157.40 576.46 154.85 572.23 151.70 C 566.36 147.79 561.04 142.74 554.08 140.82 M 511.15 231.18 C 495.04 238.76 478.86 246.22 463.06 254.44 C 469.18 267.86 482.91 278.26 498.02 277.83 C 515.40 278.13 531.37 264.44 534.49 247.47 C 535.84 239.01 536.38 229.61 531.84 221.95 C 524.71 224.49 518.04 228.09 511.15 231.18 M 317.66 229.56 C 316.55 239.17 316.87 249.50 321.93 258.05 C 329.67 272.46 347.21 280.50 363.20 277.16 C 375.28 274.68 385.86 266.04 391.11 254.96 C 390.53 253.84 389.31 253.33 388.30 252.71 C 366.12 241.84 343.35 232.21 320.70 222.37 C 319.38 224.62 317.99 226.92 317.66 229.56 Z"></path>
  </g>
  <g id="#2e3564ff">
  <path fill="#2e3564" opacity="1.00" d=" M 388.57 46.39 C 399.69 44.78 410.65 41.18 422.00 41.92 C 430.14 42.61 438.35 42.48 446.45 43.58 C 456.09 45.74 465.59 48.47 475.22 50.66 C 485.03 52.68 493.36 58.50 502.38 62.53 C 512.20 66.73 519.70 74.53 528.15 80.80 C 535.27 86.05 540.00 93.65 545.79 100.20 C 549.39 104.27 551.92 109.12 553.93 114.13 C 557.11 122.12 561.61 129.71 562.73 138.38 C 556.79 136.33 551.62 132.70 545.98 130.04 C 538.10 126.60 530.53 122.42 522.36 119.68 C 508.19 115.06 494.24 109.76 480.13 104.96 C 466.91 101.76 453.25 101.02 439.71 100.55 C 420.95 99.06 402.45 103.28 384.00 106.02 C 373.36 107.38 363.33 111.33 353.01 114.05 C 345.63 115.98 338.50 118.71 331.38 121.43 C 316.66 126.75 302.14 132.77 288.34 140.18 C 290.64 128.97 294.66 117.91 301.69 108.77 C 305.63 103.66 309.07 98.16 313.24 93.23 C 319.95 85.93 327.47 79.46 334.73 72.73 C 338.55 69.33 343.18 67.08 347.57 64.55 C 354.09 61.00 360.43 57.11 367.28 54.23 C 374.26 51.32 380.93 47.34 388.57 46.39 Z"></path>
  <path fill="#2e3564" opacity="1.00" d=" M 392.70 110.63 C 401.09 109.50 409.41 107.84 417.83 106.94 C 419.16 126.61 419.78 146.31 420.96 165.99 C 413.27 167.88 405.36 168.41 397.56 169.63 C 390.03 170.70 382.60 172.43 375.01 173.12 C 372.65 160.65 371.39 147.99 369.50 135.44 C 368.62 129.38 367.61 123.33 367.05 117.23 C 375.41 114.38 383.91 111.78 392.70 110.63 Z"></path>
  <path fill="#2e3564" opacity="1.00" d=" M 423.34 107.10 C 438.77 106.22 454.22 107.24 469.47 109.60 C 475.80 110.95 481.80 113.49 488.00 115.33 C 487.93 118.87 487.64 122.41 487.00 125.89 C 484.45 140.78 483.22 155.89 480.19 170.70 C 462.44 166.84 444.21 166.33 426.12 166.02 C 425.07 146.38 424.38 126.74 423.34 107.10 Z"></path>
  <path fill="#2e3564" opacity="1.00" d=" M 493.39 117.80 C 496.52 118.43 499.63 119.20 502.62 120.36 C 517.97 126.29 533.79 131.11 548.66 138.26 C 546.47 156.83 544.98 175.50 542.19 193.99 C 537.74 192.10 533.20 190.37 528.94 188.08 C 524.60 185.88 522.38 181.28 518.64 178.36 C 514.57 175.15 509.20 173.27 504.01 174.19 C 501.02 174.63 498.15 175.85 495.11 175.84 C 491.89 175.42 488.95 173.93 485.96 172.78 C 486.07 165.63 487.65 158.65 488.53 151.58 C 490.18 140.33 491.93 129.08 493.39 117.80 Z"></path>
  <path fill="#2e3564" opacity="1.00" d=" M 324.56 130.43 C 336.97 126.66 349.18 122.20 361.73 118.92 C 364.45 137.57 367.31 156.22 369.61 174.94 C 365.89 176.07 361.97 178.38 358.01 176.99 C 354.69 175.96 351.52 174.33 348.01 174.02 C 342.03 173.44 335.98 175.61 331.34 179.33 C 327.61 182.31 325.45 186.72 322.04 189.99 C 319.38 192.48 315.68 193.18 312.29 194.09 C 308.74 175.87 305.45 157.59 302.26 139.31 C 309.63 136.21 316.85 132.66 324.56 130.43 Z"></path>
  <path fill="#2e3564" opacity="1.00" d=" M 554.08 140.82 C 561.04 142.74 566.36 147.79 572.23 151.70 C 576.46 154.85 581.14 157.40 585.06 160.95 C 587.56 163.16 588.29 166.68 587.95 169.89 C 587.57 175.57 584.77 180.62 582.98 185.92 C 581.81 189.27 582.84 192.85 583.93 196.07 C 585.78 201.97 592.02 205.29 593.46 211.38 C 594.30 215.80 594.33 220.38 593.73 224.83 C 593.18 227.99 589.51 228.78 587.11 230.14 C 586.48 229.31 585.89 228.48 585.27 227.67 C 585.78 226.64 586.61 225.50 585.55 224.50 C 580.58 218.13 573.93 213.35 567.59 208.44 C 561.55 203.72 554.54 200.54 547.88 196.83 C 547.78 189.16 549.19 181.60 549.92 173.99 C 551.47 162.95 552.16 151.80 554.08 140.82 Z"></path>
  <path fill="#2e3564" opacity="1.00" d=" M 270.66 157.66 C 278.27 150.80 286.98 144.82 296.92 141.94 C 299.75 153.59 301.41 165.49 303.77 177.25 C 304.97 183.77 306.40 190.27 307.15 196.87 C 300.43 200.23 293.34 202.88 287.06 207.09 C 278.56 211.88 270.43 217.36 263.34 224.09 C 263.84 225.13 264.35 226.17 264.86 227.21 C 263.99 227.97 263.15 228.76 262.35 229.59 C 259.51 226.74 256.44 223.76 255.32 219.77 C 254.38 216.02 254.90 212.11 255.12 208.31 C 258.94 205.91 263.16 203.46 265.09 199.16 C 267.06 194.73 268.69 189.96 268.73 185.06 C 268.29 177.75 266.05 170.58 266.36 163.22 C 266.86 160.86 269.06 159.33 270.66 157.66 Z"></path>
  </g>
  <g id="#a6a9c2ff">
  <path fill="#a6a9c2" opacity="1.00" d=" M 366.61 183.04 C 381.53 177.34 397.44 175.66 413.09 173.15 C 416.16 172.78 419.71 171.96 422.38 174.04 C 430.48 180.65 438.64 187.53 444.62 196.20 C 438.50 196.59 432.38 195.99 426.35 194.95 C 432.82 212.77 438.13 231.02 442.52 249.47 C 444.69 257.49 445.93 265.72 446.93 273.95 C 430.85 268.60 416.73 258.93 401.95 250.87 C 405.93 240.39 409.72 229.52 409.85 218.19 C 410.05 215.94 406.98 214.72 405.42 216.15 C 403.52 217.56 402.00 219.39 400.40 221.11 C 388.48 209.02 378.50 195.17 366.61 183.04 Z"></path>
  <path fill="#a6a9c2" opacity="1.00" d=" M 264.86 227.21 C 279.72 215.25 297.65 208.18 315.18 201.16 C 312.41 206.13 309.75 211.19 308.03 216.64 C 310.77 217.91 313.48 219.21 316.15 220.61 C 312.22 228.67 311.97 237.94 313.35 246.65 C 314.68 254.61 318.14 262.32 323.85 268.10 C 325.46 270.04 327.94 271.54 328.72 274.02 C 329.07 285.54 331.63 296.77 333.74 308.05 C 324.12 302.07 313.98 296.14 307.17 286.83 C 304.60 283.31 301.91 279.86 298.79 276.80 C 302.87 285.18 310.09 291.47 314.19 299.84 C 307.24 297.89 300.47 294.83 295.22 289.77 C 285.09 280.00 277.52 267.84 272.21 254.86 C 270.71 251.82 268.73 246.67 264.43 247.91 C 257.22 249.71 250.23 252.47 242.77 253.20 C 248.68 244.84 256.14 237.72 262.35 229.59 C 263.15 228.76 263.99 227.97 264.86 227.21 M 301.31 238.69 C 301.00 242.53 300.91 246.39 300.77 250.25 C 295.67 246.14 293.07 240.02 289.13 234.96 C 290.92 242.86 295.74 250.44 303.12 254.14 C 303.52 249.82 303.33 245.48 303.00 241.16 C 304.30 240.98 305.61 240.81 306.93 240.64 C 306.98 238.18 307.05 235.72 307.19 233.26 C 305.50 235.35 303.52 237.17 301.31 238.69 Z"></path>
  </g>
  <g id="#313a6dff">
  <path fill="#313a6d" opacity="1.00" d=" M 422.38 174.04 C 427.69 171.94 433.45 172.91 439.00 172.77 C 448.71 172.55 458.35 173.89 467.96 175.10 C 475.01 176.40 481.85 178.80 488.37 181.75 C 476.86 194.28 467.10 208.25 455.95 221.08 C 453.72 218.53 451.18 216.25 448.17 214.68 C 446.09 220.18 447.30 226.05 448.48 231.59 C 450.51 240.36 452.82 249.41 458.11 256.86 C 456.26 263.37 454.67 270.02 451.59 276.09 C 450.04 275.35 448.51 274.61 446.93 273.95 C 445.93 265.72 444.69 257.49 442.52 249.47 C 438.13 231.02 432.82 212.77 426.35 194.95 C 432.38 195.99 438.50 196.59 444.62 196.20 C 438.64 187.53 430.48 180.65 422.38 174.04 Z"></path>
  <path fill="#313a6d" opacity="1.00" d=" M 533.87 197.98 C 538.05 199.32 542.08 201.04 546.05 202.89 C 551.72 205.53 557.79 207.42 562.96 211.04 C 566.91 213.76 570.79 216.57 574.80 219.21 C 578.49 221.75 582.54 224.00 585.27 227.67 C 585.89 228.48 586.48 229.31 587.11 230.14 C 591.87 236.98 600.09 240.54 604.32 247.80 C 598.92 249.08 593.36 249.44 587.83 249.34 C 585.47 249.50 582.43 248.68 580.68 250.65 C 574.01 261.00 570.72 273.34 563.22 283.22 C 558.12 289.21 551.43 293.52 545.15 298.16 C 544.63 298.40 543.59 298.90 543.07 299.14 C 540.68 299.22 538.30 299.17 535.93 299.13 C 541.11 292.67 546.31 285.93 548.90 277.95 C 540.62 290.17 529.85 300.41 518.08 309.23 C 518.55 309.18 519.49 309.08 519.96 309.04 C 519.37 309.30 518.20 309.82 517.62 310.08 C 518.23 298.76 520.07 287.55 520.35 276.20 C 522.77 273.33 526.18 271.49 528.65 268.67 C 540.39 255.51 543.10 235.49 536.14 219.41 C 538.03 218.45 539.92 217.50 541.81 216.54 C 539.90 210.05 536.24 204.29 533.87 197.98 M 543.04 240.68 C 544.53 240.69 546.03 240.69 547.53 240.70 C 547.96 244.58 548.45 248.46 549.11 252.31 C 555.16 250.21 558.96 244.64 561.23 238.92 C 557.97 241.72 554.74 244.57 551.23 247.06 C 550.08 243.58 550.90 238.08 546.40 237.01 C 546.07 234.52 545.70 232.05 545.33 229.57 C 543.37 232.94 543.25 236.89 543.04 240.68 Z"></path>
  </g>
  <g id="#c9cad7ff">
  <path fill="#c9cad7" opacity="1.00" d=" M 511.15 231.18 C 518.04 228.09 524.71 224.49 531.84 221.95 C 536.38 229.61 535.84 239.01 534.49 247.47 C 531.37 264.44 515.40 278.13 498.02 277.83 C 482.91 278.26 469.18 267.86 463.06 254.44 C 478.86 246.22 495.04 238.76 511.15 231.18 Z"></path>
  <path fill="#c9cad7" opacity="1.00" d=" M 317.66 229.56 C 317.99 226.92 319.38 224.62 320.70 222.37 C 343.35 232.21 366.12 241.84 388.30 252.71 C 389.31 253.33 390.53 253.84 391.11 254.96 C 385.86 266.04 375.28 274.68 363.20 277.16 C 347.21 280.50 329.67 272.46 321.93 258.05 C 316.87 249.50 316.55 239.17 317.66 229.56 Z"></path>
  </g>
  <g id="#1f2443ff">
  <path fill="#1f2443" opacity="1.00" d=" M 543.04 240.68 C 543.25 236.89 543.37 232.94 545.33 229.57 C 545.70 232.05 546.07 234.52 546.40 237.01 C 550.90 238.08 550.08 243.58 551.23 247.06 C 554.74 244.57 557.97 241.72 561.23 238.92 C 558.96 244.64 555.16 250.21 549.11 252.31 C 548.45 248.46 547.96 244.58 547.53 240.70 C 546.03 240.69 544.53 240.69 543.04 240.68 Z"></path>
  </g>
  <g id="#7278a1ff">
  <path fill="#7278a1" opacity="1.00" d=" M 301.31 238.69 C 303.52 237.17 305.50 235.35 307.19 233.26 C 307.05 235.72 306.98 238.18 306.93 240.64 C 305.61 240.81 304.30 240.98 303.00 241.16 C 303.33 245.48 303.52 249.82 303.12 254.14 C 295.74 250.44 290.92 242.86 289.13 234.96 C 293.07 240.02 295.67 246.14 300.77 250.25 C 300.91 246.39 301.00 242.53 301.31 238.69 Z"></path>
  </g>
  <g id="#797fa4ff">
  <path fill="#797fa4" opacity="1.00" d=" M 264.43 247.91 C 268.73 246.67 270.71 251.82 272.21 254.86 C 277.52 267.84 285.09 280.00 295.22 289.77 C 300.47 294.83 307.24 297.89 314.19 299.84 C 310.09 291.47 302.87 285.18 298.79 276.80 C 301.91 279.86 304.60 283.31 307.17 286.83 C 313.98 296.14 324.12 302.07 333.74 308.05 C 331.63 296.77 329.07 285.54 328.72 274.02 C 335.69 277.56 342.86 281.10 350.73 282.08 C 354.78 282.49 358.84 282.89 362.82 283.80 C 355.40 286.58 347.99 282.85 340.58 282.21 C 346.97 286.01 354.74 287.52 362.08 286.23 C 367.40 285.26 371.87 282.02 376.17 278.94 C 376.51 279.20 377.20 279.73 377.54 279.99 C 376.85 281.85 376.16 283.71 375.49 285.58 C 378.23 283.68 381.17 281.86 383.12 279.08 C 384.79 276.70 385.07 273.73 385.74 270.98 C 386.21 268.99 387.90 267.63 389.10 266.06 C 391.97 262.92 393.73 258.82 397.25 256.28 C 399.23 254.88 400.79 253.00 401.95 250.87 C 416.73 258.93 430.85 268.60 446.93 273.95 C 448.51 274.61 450.04 275.35 451.59 276.09 C 454.67 270.02 456.26 263.37 458.11 256.86 L 458.31 256.15 C 461.67 261.34 465.42 266.24 469.17 271.16 C 468.86 277.16 474.20 280.97 478.25 284.48 C 478.19 282.09 478.15 279.70 478.16 277.31 C 479.67 278.26 481.20 279.22 482.66 280.26 C 491.68 288.23 505.61 287.16 515.42 281.27 C 507.77 281.89 499.81 286.54 492.37 282.59 C 497.05 282.30 501.79 282.31 506.39 281.33 C 511.27 280.30 515.74 278.01 520.35 276.20 C 520.07 287.55 518.23 298.76 517.62 310.08 C 516.90 310.41 516.19 310.73 515.49 311.06 C 516.57 304.03 517.51 296.94 517.21 289.80 C 510.60 291.62 503.90 293.66 496.97 293.32 C 489.19 292.99 481.27 291.43 474.45 287.55 C 469.23 284.49 465.48 279.63 461.71 275.02 C 459.57 278.40 457.72 282.06 454.81 284.87 C 453.66 286.24 451.76 285.98 450.19 285.85 C 445.08 285.16 440.28 283.19 435.45 281.51 C 427.89 278.68 420.08 276.55 412.67 273.34 C 408.55 271.70 404.46 269.60 399.98 269.19 C 397.32 268.89 395.98 271.82 394.46 273.52 C 389.85 280.35 384.90 287.48 377.33 291.28 C 365.79 297.03 352.57 296.91 340.03 296.02 C 339.47 301.65 338.85 307.27 338.12 312.89 C 330.61 311.30 324.29 306.86 317.29 304.02 C 304.84 300.36 293.52 292.73 285.48 282.55 C 279.25 274.33 273.44 265.80 267.84 257.14 C 266.01 254.22 263.24 252.13 260.39 250.29 C 261.72 249.48 263.01 248.57 264.43 247.91 M 361.30 289.36 C 356.05 290.22 350.36 290.87 345.37 288.59 C 342.54 287.32 339.62 286.25 336.56 285.69 C 338.39 290.77 344.17 292.39 348.99 293.02 C 358.29 294.18 369.09 291.42 374.51 283.23 C 370.28 285.61 366.20 288.57 361.30 289.36 Z"></path>
  <path fill="#797fa4" opacity="1.00" d=" M 260.50 280.31 C 263.70 272.97 276.79 275.41 277.60 283.25 C 277.08 287.67 272.86 290.63 272.09 294.99 C 271.72 298.44 273.57 301.65 276.03 303.91 C 278.08 305.75 280.13 307.62 281.65 309.95 C 277.17 311.34 271.90 311.95 267.80 309.18 C 264.10 306.50 261.39 302.66 259.14 298.74 C 255.75 292.69 255.97 285.49 256.56 278.79 C 256.76 281.99 256.94 285.19 257.13 288.39 C 258.21 285.68 259.19 282.92 260.50 280.31 Z"></path>
  <path fill="#797fa4" opacity="1.00" d=" M 574.40 280.52 C 577.96 276.25 586.30 277.24 588.41 282.58 C 590.07 286.71 590.41 291.20 591.43 295.50 C 591.80 294.83 592.53 293.48 592.90 292.81 C 591.93 297.94 589.69 303.24 585.13 306.17 C 581.46 308.43 576.82 309.50 572.59 308.43 C 571.10 308.07 570.57 306.50 569.83 305.36 L 570.62 304.88 C 573.25 303.17 576.70 301.38 576.97 297.84 C 577.46 291.91 574.06 286.43 574.40 280.52 Z"></path>
  </g>
  <g id="#7a80a5ff">
  <path fill="#7a80a5" opacity="1.00" d=" M 580.68 250.65 C 582.43 248.68 585.47 249.50 587.83 249.34 C 588.93 249.89 590.00 250.53 591.08 251.15 C 588.05 252.12 584.57 252.82 582.63 255.61 C 576.69 263.16 574.45 272.91 568.48 280.46 C 562.24 288.07 554.55 294.84 545.15 298.16 C 551.43 293.52 558.12 289.21 563.22 283.22 C 570.72 273.34 574.01 261.00 580.68 250.65 Z"></path>
  </g>
  <g id="#aaadc4ff">
  <path fill="#aaadc4" opacity="1.00" d=" M 237.97 278.07 C 240.58 265.93 249.33 255.69 260.39 250.29 C 263.24 252.13 266.01 254.22 267.84 257.14 C 273.44 265.80 279.25 274.33 285.48 282.55 C 293.52 292.73 304.84 300.36 317.29 304.02 C 324.29 306.86 330.61 311.30 338.12 312.89 C 338.85 307.27 339.47 301.65 340.03 296.02 C 352.57 296.91 365.79 297.03 377.33 291.28 C 384.90 287.48 389.85 280.35 394.46 273.52 C 395.98 271.82 397.32 268.89 399.98 269.19 C 404.46 269.60 408.55 271.70 412.67 273.34 C 420.08 276.55 427.89 278.68 435.45 281.51 C 440.28 283.19 445.08 285.16 450.19 285.85 C 451.76 285.98 453.66 286.24 454.81 284.87 C 457.72 282.06 459.57 278.40 461.71 275.02 C 465.48 279.63 469.23 284.49 474.45 287.55 C 481.27 291.43 489.19 292.99 496.97 293.32 C 503.90 293.66 510.60 291.62 517.21 289.80 C 517.51 296.94 516.57 304.03 515.49 311.06 C 516.19 310.73 516.90 310.41 517.62 310.08 C 518.20 309.82 519.37 309.30 519.96 309.04 C 521.60 308.39 523.23 307.71 524.86 307.02 C 531.28 305.25 537.32 302.47 543.07 299.14 C 543.59 298.90 544.63 298.40 545.15 298.16 C 554.55 294.84 562.24 288.07 568.48 280.46 C 574.45 272.91 576.69 263.16 582.63 255.61 C 584.57 252.82 588.05 252.12 591.08 251.15 C 598.71 255.98 605.53 262.51 609.09 270.95 C 614.50 283.04 613.22 297.83 605.76 308.78 C 598.99 319.14 587.32 326.00 575.02 327.14 C 564.22 328.34 553.25 324.96 544.67 318.38 C 518.27 338.84 485.93 350.81 452.90 354.78 C 429.92 357.46 406.47 356.85 383.78 352.20 C 355.88 346.61 328.83 335.21 306.66 317.18 C 299.87 321.92 292.41 326.18 284.00 327.00 C 270.34 328.86 255.91 323.57 246.92 313.07 C 238.52 303.73 235.14 290.29 237.97 278.07 M 256.56 278.79 C 255.97 285.49 255.75 292.69 259.14 298.74 C 261.39 302.66 264.10 306.50 267.80 309.18 C 271.90 311.95 277.17 311.34 281.65 309.95 C 280.13 307.62 278.08 305.75 276.03 303.91 C 274.89 299.99 271.84 294.90 275.43 291.41 C 277.09 289.22 279.79 287.59 280.60 284.88 C 280.80 278.02 273.75 272.13 267.02 273.21 C 262.78 273.20 259.51 276.13 256.56 278.79 M 571.45 281.99 C 570.94 286.98 574.97 291.04 575.08 295.93 C 574.56 299.30 572.34 302.04 570.62 304.88 L 569.83 305.36 C 570.57 306.50 571.10 308.07 572.59 308.43 C 576.82 309.50 581.46 308.43 585.13 306.17 C 589.69 303.24 591.93 297.94 592.90 292.81 C 595.01 286.69 591.68 280.00 586.88 276.18 C 581.57 272.92 572.98 275.68 571.45 281.99 M 370.89 315.76 C 374.63 313.70 378.54 311.93 382.68 310.81 C 383.71 315.24 384.80 319.66 386.13 324.01 C 389.94 321.17 393.37 317.88 396.84 314.64 C 399.46 320.79 401.17 327.28 404.02 333.33 C 407.89 326.17 410.17 317.88 415.95 311.95 C 421.26 315.59 425.00 321.06 430.32 324.69 C 432.29 324.15 433.69 322.54 435.18 321.24 C 438.75 317.71 442.38 314.24 446.17 310.94 C 452.41 316.77 454.69 325.30 459.43 332.20 C 463.46 327.13 464.81 320.70 467.04 314.78 C 470.58 317.11 474.06 319.52 477.53 321.95 C 478.46 317.94 479.40 313.93 480.37 309.93 C 484.75 311.57 488.94 313.68 493.07 315.87 C 493.40 310.33 493.29 304.57 490.54 299.60 C 490.51 303.35 490.64 307.11 490.76 310.87 C 487.07 308.80 483.19 307.08 479.15 305.85 C 478.54 309.33 478.00 312.82 477.44 316.31 C 473.16 314.42 469.44 311.57 465.70 308.82 C 463.63 314.31 462.87 320.24 460.24 325.53 C 456.10 318.66 452.91 311.13 447.47 305.12 C 441.66 310.03 436.59 315.74 430.85 320.71 C 425.17 316.29 421.48 309.78 416.17 304.91 C 410.46 311.17 407.87 319.39 403.80 326.66 C 401.54 320.44 400.68 313.79 398.04 307.70 C 395.01 310.50 392.13 313.44 389.20 316.34 C 388.83 312.13 388.48 307.91 387.99 303.72 C 383.28 305.08 379.02 307.51 374.90 310.10 C 374.84 306.68 374.81 303.26 374.75 299.84 C 373.18 305.08 371.87 310.39 370.89 315.76 Z"></path>
  </g>
  <g id="#596190ff">
  <path fill="#596190" opacity="1.00" d=" M 378.54 275.51 C 380.88 273.91 383.24 272.33 385.74 270.98 C 385.07 273.73 384.79 276.70 383.12 279.08 C 381.17 281.86 378.23 283.68 375.49 285.58 C 376.16 283.71 376.85 281.85 377.54 279.99 C 377.20 279.73 376.51 279.20 376.17 278.94 C 371.87 282.02 367.40 285.26 362.08 286.23 C 354.74 287.52 346.97 286.01 340.58 282.21 C 347.99 282.85 355.40 286.58 362.82 283.80 C 358.84 282.89 354.78 282.49 350.73 282.08 C 360.37 283.00 370.48 281.03 378.54 275.51 Z"></path>
  </g>
  <g id="#586090ff">
  <path fill="#586090" opacity="1.00" d=" M 478.25 284.48 C 474.20 280.97 468.86 277.16 469.17 271.16 C 472.24 273.09 475.21 275.19 478.16 277.31 C 478.15 279.70 478.19 282.09 478.25 284.48 Z"></path>
  </g>
  <g id="#50588bff">
  <path fill="#50588b" opacity="1.00" d=" M 256.56 278.79 C 259.51 276.13 262.78 273.20 267.02 273.21 C 273.75 272.13 280.80 278.02 280.60 284.88 C 279.79 287.59 277.09 289.22 275.43 291.41 C 271.84 294.90 274.89 299.99 276.03 303.91 C 273.57 301.65 271.72 298.44 272.09 294.99 C 272.86 290.63 277.08 287.67 277.60 283.25 C 276.79 275.41 263.70 272.97 260.50 280.31 C 259.19 282.92 258.21 285.68 257.13 288.39 C 256.94 285.19 256.76 281.99 256.56 278.79 Z"></path>
  </g>
  <g id="#545c8dff">
  <path fill="#545c8d" opacity="1.00" d=" M 571.45 281.99 C 572.98 275.68 581.57 272.92 586.88 276.18 C 591.68 280.00 595.01 286.69 592.90 292.81 C 592.53 293.48 591.80 294.83 591.43 295.50 C 590.41 291.20 590.07 286.71 588.41 282.58 C 586.30 277.24 577.96 276.25 574.40 280.52 C 574.06 286.43 577.46 291.91 576.97 297.84 C 576.70 301.38 573.25 303.17 570.62 304.88 C 572.34 302.04 574.56 299.30 575.08 295.93 C 574.97 291.04 570.94 286.98 571.45 281.99 Z"></path>
  </g>
  <g id="#1c213eff">
  <path fill="#1c213e" opacity="1.00" d=" M 518.08 309.23 C 529.85 300.41 540.62 290.17 548.90 277.95 C 546.31 285.93 541.11 292.67 535.93 299.13 C 532.34 301.90 528.55 304.40 524.86 307.02 C 523.23 307.71 521.60 308.39 519.96 309.04 C 519.49 309.08 518.55 309.18 518.08 309.23 Z"></path>
  </g>
  <g id="#596191ff">
  <path fill="#596191" opacity="1.00" d=" M 482.66 280.26 C 486.03 280.35 489.32 281.17 492.37 282.59 C 499.81 286.54 507.77 281.89 515.42 281.27 C 505.61 287.16 491.68 288.23 482.66 280.26 Z"></path>
  </g>
  <g id="#565e8fff">
  <path fill="#565e8f" opacity="1.00" d=" M 361.30 289.36 C 366.20 288.57 370.28 285.61 374.51 283.23 C 369.09 291.42 358.29 294.18 348.99 293.02 C 344.17 292.39 338.39 290.77 336.56 285.69 C 339.62 286.25 342.54 287.32 345.37 288.59 C 350.36 290.87 356.05 290.22 361.30 289.36 Z"></path>
  </g>
  <g id="#777ea4ff">
  <path fill="#777ea4" opacity="1.00" d=" M 535.93 299.13 C 538.30 299.17 540.68 299.22 543.07 299.14 C 537.32 302.47 531.28 305.25 524.86 307.02 C 528.55 304.40 532.34 301.90 535.93 299.13 Z"></path>
  </g>
  <g id="#525a8cff">
  <path fill="#525a8c" opacity="1.00" d=" M 370.89 315.76 C 371.87 310.39 373.18 305.08 374.75 299.84 C 374.81 303.26 374.84 306.68 374.90 310.10 C 379.02 307.51 383.28 305.08 387.99 303.72 C 388.48 307.91 388.83 312.13 389.20 316.34 C 392.13 313.44 395.01 310.50 398.04 307.70 C 400.68 313.79 401.54 320.44 403.80 326.66 C 407.87 319.39 410.46 311.17 416.17 304.91 C 421.48 309.78 425.17 316.29 430.85 320.71 C 436.59 315.74 441.66 310.03 447.47 305.12 C 452.91 311.13 456.10 318.66 460.24 325.53 C 462.87 320.24 463.63 314.31 465.70 308.82 C 469.44 311.57 473.16 314.42 477.44 316.31 C 478.00 312.82 478.54 309.33 479.15 305.85 C 483.19 307.08 487.07 308.80 490.76 310.87 C 490.64 307.11 490.51 303.35 490.54 299.60 C 493.29 304.57 493.40 310.33 493.07 315.87 C 488.94 313.68 484.75 311.57 480.37 309.93 C 479.40 313.93 478.46 317.94 477.53 321.95 C 474.06 319.52 470.58 317.11 467.04 314.78 C 464.81 320.70 463.46 327.13 459.43 332.20 C 454.69 325.30 452.41 316.77 446.17 310.94 C 442.38 314.24 438.75 317.71 435.18 321.24 C 433.69 322.54 432.29 324.15 430.32 324.69 C 425.00 321.06 421.26 315.59 415.95 311.95 C 410.17 317.88 407.89 326.17 404.02 333.33 C 401.17 327.28 399.46 320.79 396.84 314.64 C 393.37 317.88 389.94 321.17 386.13 324.01 C 384.80 319.66 383.71 315.24 382.68 310.81 C 378.54 311.93 374.63 313.70 370.89 315.76 Z"></path>
  </g>
</svg>