<svg xmlns="http://www.w3.org/2000/svg" width="1440" height="900"><path d="M773,476L883,514L785,440Z" fill="#2f4b77" stroke="#2f4b77" stroke-width="1.51"/><path d="M883,514L895,459L785,440Z" fill="#2f4a75" stroke="#2f4a75" stroke-width="1.51"/><path d="M895,459L822,372L785,440Z" fill="#304c76" stroke="#304c76" stroke-width="1.51"/><path d="M895,459L914,406L822,372Z" fill="#304a74" stroke="#304a74" stroke-width="1.51"/><path d="M997,484L914,406L895,459Z" fill="#2d4873" stroke="#2d4873" stroke-width="1.51"/><path d="M883,514L997,484L895,459Z" fill="#2c4670" stroke="#2c4670" stroke-width="1.51"/><path d="M829,608L920,562L883,514Z" fill="#2b426c" stroke="#2b426c" stroke-width="1.51"/><path d="M773,476L829,608L883,514Z" fill="#2c4771" stroke="#2c4771" stroke-width="1.51"/><path d="M914,406L842,345L822,372Z" fill="#314a72" stroke="#314a72" stroke-width="1.51"/><path d="M822,372L755,362L785,440Z" fill="#324e78" stroke="#324e78" stroke-width="1.51"/><path d="M664,399L684,517L773,476Z" fill="#32517e" stroke="#32517e" stroke-width="1.51"/><path d="M842,345L755,362L822,372Z" fill="#324d74" stroke="#324d74" stroke-width="1.51"/><path d="M773,476L768,610L829,608Z" fill="#2c4671" stroke="#2c4671" stroke-width="1.51"/><path d="M684,517L768,610L773,476Z" fill="#2f4a76" stroke="#2f4a76" stroke-width="1.51"/><path d="M664,399L773,476L785,440Z" fill="#32517d" stroke="#32517d" stroke-width="1.51"/><path d="M920,562L997,484L883,514Z" fill="#2b426d" stroke="#2b426d" stroke-width="1.51"/><path d="M755,362L708,357L785,440Z" fill="#334f79" stroke="#334f79" stroke-width="1.51"/><path d="M718,246L708,357L755,362Z" fill="#355075" stroke="#355075" stroke-width="1.51"/><path d="M708,357L664,399L785,440Z" fill="#33517b" stroke="#33517b" stroke-width="1.51"/><path d="M840,705L895,682L829,608Z" fill="#283b65" stroke="#283b65" stroke-width="1.51"/><path d="M684,517L684,619L768,610Z" fill="#2e4873" stroke="#2e4873" stroke-width="1.51"/><path d="M599,550L684,619L684,517Z" fill="#2f4972" stroke="#2f4972" stroke-width="1.51"/><path d="M829,608L895,682L920,562Z" fill="#293e67" stroke="#293e67" stroke-width="1.51"/><path d="M920,562L1005,610L997,484Z" fill="#293e68" stroke="#293e68" stroke-width="1.51"/><path d="M777,683L829,608L768,610Z" fill="#2a416b" stroke="#2a416b" stroke-width="1.51"/><path d="M684,619L777,683L768,610Z" fill="#2b436d" stroke="#2b436d" stroke-width="1.51"/><path d="M895,682L1005,610L920,562Z" fill="#273b64" stroke="#273b64" stroke-width="1.51"/><path d="M997,484L1050,425L914,406Z" fill="#2d456f" stroke="#2d456f" stroke-width="1.51"/><path d="M914,406L978,284L842,345Z" fill="#30476d" stroke="#30476d" stroke-width="1.51"/><path d="M1071,471L1050,425L997,484Z" fill="#2a426c" stroke="#2a426c" stroke-width="1.51"/><path d="M664,399L613,505L684,517Z" fill="#324f7a" stroke="#324f7a" stroke-width="1.51"/><path d="M777,683L840,705L829,608Z" fill="#293d67" stroke="#293d67" stroke-width="1.51"/><path d="M1106,546L1071,471L997,484Z" fill="#293e68" stroke="#293e68" stroke-width="1.51"/><path d="M1057,330L978,284L914,406Z" fill="#2f4469" stroke="#2f4469" stroke-width="1.51"/><path d="M733,231L718,246L755,362Z" fill="#354f72" stroke="#354f72" stroke-width="1.51"/><path d="M613,505L599,550L684,517Z" fill="#314c75" stroke="#314c75" stroke-width="1.51"/><path d="M571,294L574,388L664,399Z" fill="#365074" stroke="#365074" stroke-width="1.51"/><path d="M664,399L574,388L613,505Z" fill="#345079" stroke="#345079" stroke-width="1.51"/><path d="M733,231L755,362L842,345Z" fill="#334d72" stroke="#334d72" stroke-width="1.51"/><path d="M777,683L735,721L840,705Z" fill="#283d65" stroke="#283d65" stroke-width="1.51"/><path d="M684,619L735,721L777,683Z" fill="#2a416b" stroke="#2a416b" stroke-width="1.51"/><path d="M667,702L735,721L684,619Z" fill="#2b416a" stroke="#2b416a" stroke-width="1.51"/><path d="M846,200L733,231L842,345Z" fill="#344b6d" stroke="#344b6d" stroke-width="1.51"/><path d="M978,284L916,223L842,345Z" fill="#314769" stroke="#314769" stroke-width="1.51"/><path d="M978,284L1023,276L916,223Z" fill="#304464" stroke="#304464" stroke-width="1.51"/><path d="M1050,425L1057,330L914,406Z" fill="#2d436b" stroke="#2d436b" stroke-width="1.51"/><path d="M1094,337L1057,330L1050,425Z" fill="#2d4166" stroke="#2d4166" stroke-width="1.51"/><path d="M571,294L664,399L708,357Z" fill="#355075" stroke="#355075" stroke-width="1.51"/><path d="M613,505L538,540L599,550Z" fill="#314b72" stroke="#314b72" stroke-width="1.51"/><path d="M571,294L708,357L608,230Z" fill="#374f70" stroke="#374f70" stroke-width="1.51"/><path d="M1057,330L1023,276L978,284Z" fill="#2f4264" stroke="#2f4264" stroke-width="1.51"/><path d="M916,223L846,200L842,345Z" fill="#33486a" stroke="#33486a" stroke-width="1.51"/><path d="M1005,610L1106,546L997,484Z" fill="#283c65" stroke="#283c65" stroke-width="1.51"/><path d="M1120,368L1094,337L1050,425Z" fill="#2c4066" stroke="#2c4066" stroke-width="1.51"/><path d="M1065,670L1106,546L1005,610Z" fill="#25365e" stroke="#25365e" stroke-width="1.51"/><path d="M549,676L667,702L684,619Z" fill="#2c4168" stroke="#2c4168" stroke-width="1.51"/><path d="M1120,368L1050,425L1071,471Z" fill="#2a4169" stroke="#2a4169" stroke-width="1.51"/><path d="M1057,330L1094,337L1023,276Z" fill="#2d4063" stroke="#2d4063" stroke-width="1.51"/><path d="M667,702L696,740L735,721Z" fill="#293f66" stroke="#293f66" stroke-width="1.51"/><path d="M735,721L835,786L840,705Z" fill="#273a61" stroke="#273a61" stroke-width="1.51"/><path d="M895,682L972,742L1005,610Z" fill="#25365e" stroke="#25365e" stroke-width="1.51"/><path d="M835,786L972,742L895,682Z" fill="#25355b" stroke="#25355b" stroke-width="1.51"/><path d="M835,786L895,682L840,705Z" fill="#26385f" stroke="#26385f" stroke-width="1.51"/><path d="M972,742L1065,670L1005,610Z" fill="#24345b" stroke="#24345b" stroke-width="1.51"/><path d="M574,388L538,540L613,505Z" fill="#334f76" stroke="#334f76" stroke-width="1.51"/><path d="M599,550L549,676L684,619Z" fill="#2e456b" stroke="#2e456b" stroke-width="1.51"/><path d="M667,702L626,795L696,740Z" fill="#293d61" stroke="#293d61" stroke-width="1.51"/><path d="M1214,412L1120,368L1071,471Z" fill="#2a3f65" stroke="#2a3f65" stroke-width="1.51"/><path d="M777,841L835,786L735,721Z" fill="#27385d" stroke="#27385d" stroke-width="1.51"/><path d="M574,388L472,424L538,540Z" fill="#355076" stroke="#355076" stroke-width="1.51"/><path d="M608,230L708,357L718,246Z" fill="#364f71" stroke="#364f71" stroke-width="1.51"/><path d="M684,164L608,230L718,246Z" fill="#364d6c" stroke="#364d6c" stroke-width="1.51"/><path d="M684,164L718,246L733,231Z" fill="#354e6e" stroke="#354e6e" stroke-width="1.51"/><path d="M1065,670L1125,673L1106,546Z" fill="#24335b" stroke="#24335b" stroke-width="1.51"/><path d="M972,742L1055,733L1065,670Z" fill="#233056" stroke="#233056" stroke-width="1.51"/><path d="M1071,790L1055,733L972,742Z" fill="#222e52" stroke="#222e52" stroke-width="1.51"/><path d="M779,115L684,164L733,231Z" fill="#32496a" stroke="#32496a" stroke-width="1.51"/><path d="M538,540L549,676L599,550Z" fill="#2f466c" stroke="#2f466c" stroke-width="1.51"/><path d="M1055,733L1125,673L1065,670Z" fill="#223056" stroke="#223056" stroke-width="1.51"/><path d="M1106,546L1214,412L1071,471Z" fill="#293d66" stroke="#293d66" stroke-width="1.51"/><path d="M835,786L856,832L972,742Z" fill="#253357" stroke="#253357" stroke-width="1.51"/><path d="M777,841L856,832L835,786Z" fill="#253457" stroke="#253457" stroke-width="1.51"/><path d="M777,841L735,721L713,832Z" fill="#27395e" stroke="#27395e" stroke-width="1.51"/><path d="M549,676L584,745L667,702Z" fill="#2b3e63" stroke="#2b3e63" stroke-width="1.51"/><path d="M538,540L524,669L549,676Z" fill="#2e4367" stroke="#2e4367" stroke-width="1.51"/><path d="M846,200L779,115L733,231Z" fill="#324868" stroke="#324868" stroke-width="1.51"/><path d="M857,107L779,115L846,200Z" fill="#2e4262" stroke="#2e4262" stroke-width="1.51"/><path d="M857,107L846,200L897,111Z" fill="#2d4060" stroke="#2d4060" stroke-width="1.51"/><path d="M477,327L472,424L574,388Z" fill="#364f71" stroke="#364f71" stroke-width="1.51"/><path d="M538,540L448,536L524,669Z" fill="#30466a" stroke="#30466a" stroke-width="1.51"/><path d="M477,327L574,388L571,294Z" fill="#374f6f" stroke="#374f6f" stroke-width="1.51"/><path d="M508,746L584,745L549,676Z" fill="#2b3d5f" stroke="#2b3d5f" stroke-width="1.51"/><path d="M472,424L470,524L538,540Z" fill="#334c71" stroke="#334c71" stroke-width="1.51"/><path d="M713,832L735,721L696,740Z" fill="#293c62" stroke="#293c62" stroke-width="1.51"/><path d="M897,111L846,200L916,223Z" fill="#2f4262" stroke="#2f4262" stroke-width="1.51"/><path d="M897,111L916,223L996,120Z" fill="#2c3e5d" stroke="#2c3e5d" stroke-width="1.51"/><path d="M996,120L916,223L1023,276Z" fill="#2f4160" stroke="#2f4160" stroke-width="1.51"/><path d="M626,795L713,832L696,740Z" fill="#283a5e" stroke="#283a5e" stroke-width="1.51"/><path d="M584,745L626,795L667,702Z" fill="#2a3c60" stroke="#2a3c60" stroke-width="1.51"/><path d="M1094,337L1118,211L1023,276Z" fill="#2d3f60" stroke="#2d3f60" stroke-width="1.51"/><path d="M1208,309L1118,211L1094,337Z" fill="#2d3d5c" stroke="#2d3d5c" stroke-width="1.51"/><path d="M1235,519L1214,412L1106,546Z" fill="#283a61" stroke="#283a61" stroke-width="1.51"/><path d="M544,212L477,327L571,294Z" fill="#384e6b" stroke="#384e6b" stroke-width="1.51"/><path d="M544,212L571,294L608,230Z" fill="#384e6a" stroke="#384e6a" stroke-width="1.51"/><path d="M1208,309L1094,337L1120,368Z" fill="#2c3e5f" stroke="#2c3e5f" stroke-width="1.51"/><path d="M470,524L448,536L538,540Z" fill="#32496e" stroke="#32496e" stroke-width="1.51"/><path d="M399,462L448,536L470,524Z" fill="#344b6e" stroke="#344b6e" stroke-width="1.51"/><path d="M399,462L470,524L472,424Z" fill="#354e71" stroke="#354e71" stroke-width="1.51"/><path d="M1118,211L996,120L1023,276Z" fill="#2e3e5c" stroke="#2e3e5c" stroke-width="1.51"/><path d="M808,50L779,115L857,107Z" fill="#2a3e5f" stroke="#2a3e5f" stroke-width="1.51"/><path d="M564,172L544,212L608,230Z" fill="#364b67" stroke="#364b67" stroke-width="1.51"/><path d="M564,172L608,230L684,164Z" fill="#354a68" stroke="#354a68" stroke-width="1.51"/><path d="M1012,882L1071,790L972,742Z" fill="#212c4f" stroke="#212c4f" stroke-width="1.51"/><path d="M1055,733L1175,730L1125,673Z" fill="#212d52" stroke="#212d52" stroke-width="1.51"/><path d="M856,832L895,867L972,742Z" fill="#233053" stroke="#233053" stroke-width="1.51"/><path d="M857,918L895,867L856,832Z" fill="#222f4f" stroke="#222f4f" stroke-width="1.51"/><path d="M857,918L856,832L777,841Z" fill="#243152" stroke="#243152" stroke-width="1.51"/><path d="M1218,615L1106,546L1125,673Z" fill="#243359" stroke="#243359" stroke-width="1.51"/><path d="M1218,615L1235,519L1106,546Z" fill="#25355b" stroke="#25355b" stroke-width="1.51"/><path d="M385,318L397,392L477,327Z" fill="#374e6a" stroke="#374e6a" stroke-width="1.51"/><path d="M666,64L564,172L684,164Z" fill="#304664" stroke="#304664" stroke-width="1.51"/><path d="M1235,694L1218,615L1125,673Z" fill="#212e52" stroke="#212e52" stroke-width="1.51"/><path d="M1214,412L1208,309L1120,368Z" fill="#2b3d5f" stroke="#2b3d5f" stroke-width="1.51"/><path d="M1274,361L1208,309L1214,412Z" fill="#2a3a5c" stroke="#2a3a5c" stroke-width="1.51"/><path d="M524,669L508,746L549,676Z" fill="#2c3e61" stroke="#2c3e61" stroke-width="1.51"/><path d="M584,745L543,823L626,795Z" fill="#2a395a" stroke="#2a395a" stroke-width="1.51"/><path d="M709,944L767,913L713,832Z" fill="#263354" stroke="#263354" stroke-width="1.51"/><path d="M453,754L508,746L524,669Z" fill="#2c3c5c" stroke="#2c3c5c" stroke-width="1.51"/><path d="M1071,790L1175,730L1055,733Z" fill="#212c4f" stroke="#212c4f" stroke-width="1.51"/><path d="M779,115L666,64L684,164Z" fill="#2f4465" stroke="#2f4465" stroke-width="1.51"/><path d="M808,50L766,57L779,115Z" fill="#2a3e5f" stroke="#2a3e5f" stroke-width="1.51"/><path d="M808,50L857,107L903,44Z" fill="#283a5b" stroke="#283a5b" stroke-width="1.51"/><path d="M903,44L857,107L897,111Z" fill="#293a5b" stroke="#293a5b" stroke-width="1.51"/><path d="M1118,211L1118,154L996,120Z" fill="#2a3857" stroke="#2a3857" stroke-width="1.51"/><path d="M996,120L903,44L897,111Z" fill="#283859" stroke="#283859" stroke-width="1.51"/><path d="M1212,184L1118,154L1118,211Z" fill="#2a3854" stroke="#2a3854" stroke-width="1.51"/><path d="M1118,154L1029,93L996,120Z" fill="#283655" stroke="#283655" stroke-width="1.51"/><path d="M1235,519L1263,421L1214,412Z" fill="#283b61" stroke="#283b61" stroke-width="1.51"/><path d="M1322,504L1263,421L1235,519Z" fill="#27375c" stroke="#27375c" stroke-width="1.51"/><path d="M397,392L399,462L472,424Z" fill="#364f70" stroke="#364f70" stroke-width="1.51"/><path d="M391,696L453,754L524,669Z" fill="#2d3d5d" stroke="#2d3d5d" stroke-width="1.51"/><path d="M397,392L472,424L477,327Z" fill="#374e6e" stroke="#374e6e" stroke-width="1.51"/><path d="M937,8L903,44L996,120Z" fill="#253555" stroke="#253555" stroke-width="1.51"/><path d="M713,832L767,913L777,841Z" fill="#263556" stroke="#263556" stroke-width="1.51"/><path d="M578,884L713,832L626,795Z" fill="#283758" stroke="#283758" stroke-width="1.51"/><path d="M1056,866L1108,824L1071,790Z" fill="#1f2849" stroke="#1f2849" stroke-width="1.51"/><path d="M1071,790L1108,824L1175,730Z" fill="#20294b" stroke="#20294b" stroke-width="1.51"/><path d="M767,913L857,918L777,841Z" fill="#243151" stroke="#243151" stroke-width="1.51"/><path d="M1012,882L972,742L895,867Z" fill="#222d4f" stroke="#222d4f" stroke-width="1.51"/><path d="M952,914L1012,882L895,867Z" fill="#212a49" stroke="#212a49" stroke-width="1.51"/><path d="M385,318L477,327L402,261Z" fill="#384d67" stroke="#384d67" stroke-width="1.51"/><path d="M766,57L666,64L779,115Z" fill="#2b4062" stroke="#2b4062" stroke-width="1.51"/><path d="M697,-4L666,64L766,57Z" fill="#293d5f" stroke="#293d5f" stroke-width="1.51"/><path d="M1274,361L1217,244L1208,309Z" fill="#2b3958" stroke="#2b3958" stroke-width="1.51"/><path d="M1208,309L1217,244L1118,211Z" fill="#2d3b57" stroke="#2d3b57" stroke-width="1.51"/><path d="M1012,882L1056,866L1071,790Z" fill="#1f2949" stroke="#1f2949" stroke-width="1.51"/><path d="M508,746L543,823L584,745Z" fill="#2a3a5a" stroke="#2a3a5a" stroke-width="1.51"/><path d="M1142,932L1108,824L1056,866Z" fill="#1e2543" stroke="#1e2543" stroke-width="1.51"/><path d="M857,918L952,914L895,867Z" fill="#222c4b" stroke="#222c4b" stroke-width="1.51"/><path d="M1263,421L1274,361L1214,412Z" fill="#293a5d" stroke="#293a5d" stroke-width="1.51"/><path d="M1218,615L1306,572L1235,519Z" fill="#243256" stroke="#243256" stroke-width="1.51"/><path d="M1263,421L1409,403L1274,361Z" fill="#293858" stroke="#293858" stroke-width="1.51"/><path d="M1175,730L1235,694L1125,673Z" fill="#212c4f" stroke="#212c4f" stroke-width="1.51"/><path d="M1262,711L1235,694L1175,730Z" fill="#202a4b" stroke="#202a4b" stroke-width="1.51"/><path d="M745,-36L697,-4L766,57Z" fill="#26395b" stroke="#26395b" stroke-width="1.51"/><path d="M903,44L848,9L808,50Z" fill="#263757" stroke="#263757" stroke-width="1.51"/><path d="M937,8L848,9L903,44Z" fill="#243454" stroke="#243454" stroke-width="1.51"/><path d="M508,746L453,754L543,823Z" fill="#2a3958" stroke="#2a3958" stroke-width="1.51"/><path d="M361,610L524,669L448,536Z" fill="#304466" stroke="#304466" stroke-width="1.51"/><path d="M402,261L477,327L544,212Z" fill="#384d68" stroke="#384d68" stroke-width="1.51"/><path d="M294,517L361,610L399,462Z" fill="#334868" stroke="#334868" stroke-width="1.51"/><path d="M481,149L544,212L564,172Z" fill="#354963" stroke="#354963" stroke-width="1.51"/><path d="M1217,244L1212,184L1118,211Z" fill="#2c3a54" stroke="#2c3a54" stroke-width="1.51"/><path d="M1118,154L1147,87L1029,93Z" fill="#263352" stroke="#263352" stroke-width="1.51"/><path d="M1261,207L1212,184L1217,244Z" fill="#2b3752" stroke="#2b3752" stroke-width="1.51"/><path d="M1029,93L937,8L996,120Z" fill="#253454" stroke="#253454" stroke-width="1.51"/><path d="M1017,-31L937,8L1029,93Z" fill="#223050" stroke="#223050" stroke-width="1.51"/><path d="M1278,702L1306,572L1218,615Z" fill="#212d50" stroke="#212d50" stroke-width="1.51"/><path d="M543,823L578,884L626,795Z" fill="#283755" stroke="#283755" stroke-width="1.51"/><path d="M493,885L578,884L543,823Z" fill="#283551" stroke="#283551" stroke-width="1.51"/><path d="M565,55L481,149L564,172Z" fill="#31445f" stroke="#31445f" stroke-width="1.51"/><path d="M481,149L402,261L544,212Z" fill="#384b63" stroke="#384b63" stroke-width="1.51"/><path d="M767,913L822,1034L857,918Z" fill="#24304f" stroke="#24304f" stroke-width="1.51"/><path d="M857,918L898,1046L952,914Z" fill="#222c4b" stroke="#222c4b" stroke-width="1.51"/><path d="M578,884L709,944L713,832Z" fill="#273453" stroke="#273453" stroke-width="1.51"/><path d="M1286,823L1262,711L1175,730Z" fill="#1f2746" stroke="#1f2746" stroke-width="1.51"/><path d="M1235,694L1278,702L1218,615Z" fill="#202b4e" stroke="#202b4e" stroke-width="1.51"/><path d="M1278,702L1262,711L1362,750Z" fill="#1e2646" stroke="#1e2646" stroke-width="1.51"/><path d="M1306,572L1322,504L1235,519Z" fill="#253457" stroke="#253457" stroke-width="1.51"/><path d="M399,462L361,610L448,536Z" fill="#33496a" stroke="#33496a" stroke-width="1.51"/><path d="M300,388L399,462L397,392Z" fill="#374e6d" stroke="#374e6d" stroke-width="1.51"/><path d="M453,754L493,885L543,823Z" fill="#293753" stroke="#293753" stroke-width="1.51"/><path d="M361,610L391,696L524,669Z" fill="#2e4061" stroke="#2e4061" stroke-width="1.51"/><path d="M1306,572L1354,511L1322,504Z" fill="#243255" stroke="#243255" stroke-width="1.51"/><path d="M1262,711L1278,702L1235,694Z" fill="#20294a" stroke="#20294a" stroke-width="1.51"/><path d="M1202,877L1175,730L1108,824Z" fill="#1e2646" stroke="#1e2646" stroke-width="1.51"/><path d="M1212,184L1147,87L1118,154Z" fill="#273350" stroke="#273350" stroke-width="1.51"/><path d="M666,64L565,55L564,172Z" fill="#2e425f" stroke="#2e425f" stroke-width="1.51"/><path d="M745,-36L766,57L808,50Z" fill="#27395b" stroke="#27395b" stroke-width="1.51"/><path d="M745,-36L808,50L848,9Z" fill="#253658" stroke="#253658" stroke-width="1.51"/><path d="M589,5L565,55L666,64Z" fill="#2a3d5b" stroke="#2a3d5b" stroke-width="1.51"/><path d="M1212,184L1237,76L1147,87Z" fill="#252f4c" stroke="#252f4c" stroke-width="1.51"/><path d="M1328,219L1261,207L1217,244Z" fill="#2b3750" stroke="#2b3750" stroke-width="1.51"/><path d="M1328,219L1217,244L1274,361Z" fill="#2a3753" stroke="#2a3753" stroke-width="1.51"/><path d="M697,-4L589,5L666,64Z" fill="#283b5b" stroke="#283b5b" stroke-width="1.51"/><path d="M827,-91L745,-36L848,9Z" fill="#243657" stroke="#243657" stroke-width="1.51"/><path d="M1322,504L1409,403L1263,421Z" fill="#27385a" stroke="#27385a" stroke-width="1.51"/><path d="M1379,570L1354,511L1306,572Z" fill="#233052" stroke="#233052" stroke-width="1.51"/><path d="M565,55L472,92L481,149Z" fill="#2f415b" stroke="#2f415b" stroke-width="1.51"/><path d="M481,149L408,132L402,261Z" fill="#36485f" stroke="#36485f" stroke-width="1.51"/><path d="M525,8L472,92L565,55Z" fill="#2c3d58" stroke="#2c3d58" stroke-width="1.51"/><path d="M621,-139L589,5L697,-4Z" fill="#273959" stroke="#273959" stroke-width="1.51"/><path d="M653,1002L735,1003L709,944Z" fill="#263453" stroke="#263453" stroke-width="1.51"/><path d="M438,907L493,885L376,862Z" fill="#28334a" stroke="#28334a" stroke-width="1.51"/><path d="M709,944L735,1003L767,913Z" fill="#253353" stroke="#253353" stroke-width="1.51"/><path d="M653,1002L709,944L578,884Z" fill="#263351" stroke="#263351" stroke-width="1.51"/><path d="M937,8L827,-91L848,9Z" fill="#233354" stroke="#233354" stroke-width="1.51"/><path d="M1100,-47L1017,-31L1029,93Z" fill="#1f2c4b" stroke="#1f2c4b" stroke-width="1.51"/><path d="M385,318L300,388L397,392Z" fill="#384e69" stroke="#384e69" stroke-width="1.51"/><path d="M288,319L300,388L385,318Z" fill="#364b66" stroke="#364b66" stroke-width="1.51"/><path d="M288,319L385,318L402,261Z" fill="#394d65" stroke="#394d65" stroke-width="1.51"/><path d="M361,610L303,629L391,696Z" fill="#2f405e" stroke="#2f405e" stroke-width="1.51"/><path d="M391,696L356,772L453,754Z" fill="#2d3b57" stroke="#2d3b57" stroke-width="1.51"/><path d="M300,388L294,517L399,462Z" fill="#354d6d" stroke="#354d6d" stroke-width="1.51"/><path d="M1142,932L1202,877L1108,824Z" fill="#1d2340" stroke="#1d2340" stroke-width="1.51"/><path d="M1142,932L1056,866L1012,882Z" fill="#1d2543" stroke="#1d2543" stroke-width="1.51"/><path d="M1142,932L1012,882L1033,1036Z" fill="#1e2543" stroke="#1e2543" stroke-width="1.51"/><path d="M439,95L408,132L481,149Z" fill="#31435b" stroke="#31435b" stroke-width="1.51"/><path d="M439,95L481,149L472,92Z" fill="#30425b" stroke="#30425b" stroke-width="1.51"/><path d="M456,-27L439,95L472,92Z" fill="#2c3d56" stroke="#2c3d56" stroke-width="1.51"/><path d="M1033,1036L1012,882L952,914Z" fill="#202846" stroke="#202846" stroke-width="1.51"/><path d="M1358,668L1379,570L1306,572Z" fill="#212c4d" stroke="#212c4d" stroke-width="1.51"/><path d="M1405,298L1328,219L1274,361Z" fill="#293650" stroke="#293650" stroke-width="1.51"/><path d="M1358,668L1306,572L1278,702Z" fill="#202a4c" stroke="#202a4c" stroke-width="1.51"/><path d="M294,517L303,629L361,610Z" fill="#2f4262" stroke="#2f4262" stroke-width="1.51"/><path d="M630,1036L653,1002L578,884Z" fill="#273350" stroke="#273350" stroke-width="1.51"/><path d="M1362,750L1358,668L1278,702Z" fill="#1e2645" stroke="#1e2645" stroke-width="1.51"/><path d="M1142,932L1198,898L1202,877Z" fill="#1c213c" stroke="#1c213c" stroke-width="1.51"/><path d="M1409,403L1322,504L1354,511Z" fill="#263557" stroke="#263557" stroke-width="1.51"/><path d="M1261,207L1260,106L1212,184Z" fill="#28334d" stroke="#28334d" stroke-width="1.51"/><path d="M1147,87L1100,-47L1029,93Z" fill="#212d4c" stroke="#212d4c" stroke-width="1.51"/><path d="M1286,823L1175,730L1202,877Z" fill="#1e2442" stroke="#1e2442" stroke-width="1.51"/><path d="M630,1036L822,1034L735,1003Z" fill="#263354" stroke="#263354" stroke-width="1.51"/><path d="M735,1003L822,1034L767,913Z" fill="#253151" stroke="#253151" stroke-width="1.51"/><path d="M589,5L525,8L565,55Z" fill="#293a57" stroke="#293a57" stroke-width="1.51"/><path d="M456,-27L525,8L463,-136Z" fill="#293852" stroke="#293852" stroke-width="1.51"/><path d="M274,652L356,772L391,696Z" fill="#2d3b58" stroke="#2d3b58" stroke-width="1.51"/><path d="M1326,141L1260,106L1261,207Z" fill="#263049" stroke="#263049" stroke-width="1.51"/><path d="M974,-141L827,-91L937,8Z" fill="#223152" stroke="#223152" stroke-width="1.51"/><path d="M650,-155L621,-139L697,-4Z" fill="#273959" stroke="#273959" stroke-width="1.51"/><path d="M1260,106L1237,76L1212,184Z" fill="#252f4a" stroke="#252f4a" stroke-width="1.51"/><path d="M174,482L253,593L294,517Z" fill="#2e4262" stroke="#2e4262" stroke-width="1.51"/><path d="M333,192L288,319L402,261Z" fill="#384b61" stroke="#384b61" stroke-width="1.51"/><path d="M1274,956L1286,823L1202,877Z" fill="#1c1f39" stroke="#1c1f39" stroke-width="1.51"/><path d="M822,1034L898,1046L857,918Z" fill="#232e4d" stroke="#232e4d" stroke-width="1.51"/><path d="M408,132L333,192L402,261Z" fill="#37495e" stroke="#37495e" stroke-width="1.51"/><path d="M321,112L333,192L408,132Z" fill="#334459" stroke="#334459" stroke-width="1.51"/><path d="M252,245L333,192L284,141Z" fill="#34455a" stroke="#34455a" stroke-width="1.51"/><path d="M1488,458L1409,403L1354,511Z" fill="#263455" stroke="#263455" stroke-width="1.51"/><path d="M477,1044L630,1036L578,884Z" fill="#27324e" stroke="#27324e" stroke-width="1.51"/><path d="M376,862L493,885L453,754Z" fill="#29354f" stroke="#29354f" stroke-width="1.51"/><path d="M1017,-31L974,-141L937,8Z" fill="#212e4f" stroke="#212e4f" stroke-width="1.51"/><path d="M1206,3L1100,-47L1147,87Z" fill="#1e2846" stroke="#1e2846" stroke-width="1.51"/><path d="M356,772L376,862L453,754Z" fill="#2b3751" stroke="#2b3751" stroke-width="1.51"/><path d="M303,629L274,652L391,696Z" fill="#2d3d5c" stroke="#2d3d5c" stroke-width="1.51"/><path d="M253,593L274,652L303,629Z" fill="#2d3d5c" stroke="#2d3d5c" stroke-width="1.51"/><path d="M253,593L303,629L294,517Z" fill="#2e4160" stroke="#2e4160" stroke-width="1.51"/><path d="M1237,76L1206,3L1147,87Z" fill="#212b47" stroke="#212b47" stroke-width="1.51"/><path d="M1260,106L1272,84L1237,76Z" fill="#222b46" stroke="#222b46" stroke-width="1.51"/><path d="M1326,141L1272,84L1260,106Z" fill="#232c46" stroke="#232c46" stroke-width="1.51"/><path d="M1326,141L1261,207L1328,219Z" fill="#28334b" stroke="#28334b" stroke-width="1.51"/><path d="M219,453L294,517L300,388Z" fill="#32496b" stroke="#32496b" stroke-width="1.51"/><path d="M1142,932L1155,1022L1198,898Z" fill="#1c213d" stroke="#1c213d" stroke-width="1.51"/><path d="M898,1046L1033,1036L952,914Z" fill="#202948" stroke="#202948" stroke-width="1.51"/><path d="M1379,570L1488,458L1354,511Z" fill="#243151" stroke="#243151" stroke-width="1.51"/><path d="M1358,668L1416,672L1379,570Z" fill="#202948" stroke="#202948" stroke-width="1.51"/><path d="M1286,823L1362,750L1262,711Z" fill="#1e2442" stroke="#1e2442" stroke-width="1.51"/><path d="M1433,185L1326,141L1328,219Z" fill="#273047" stroke="#273047" stroke-width="1.51"/><path d="M653,1002L630,1036L735,1003Z" fill="#263352" stroke="#263352" stroke-width="1.51"/><path d="M822,1034L630,1036L898,1046Z" fill="#243151" stroke="#243151" stroke-width="1.51"/><path d="M477,1044L578,884L493,885Z" fill="#27324c" stroke="#27324c" stroke-width="1.51"/><path d="M1409,403L1405,298L1274,361Z" fill="#283553" stroke="#283553" stroke-width="1.51"/><path d="M352,865L376,862L356,772Z" fill="#2a354c" stroke="#2a354c" stroke-width="1.51"/><path d="M220,362L240,398L300,388Z" fill="#334765" stroke="#334765" stroke-width="1.51"/><path d="M220,362L300,388L288,319Z" fill="#344864" stroke="#344864" stroke-width="1.51"/><path d="M1324,-29L1206,3L1272,84Z" fill="#1d2540" stroke="#1d2540" stroke-width="1.51"/><path d="M1272,84L1206,3L1237,76Z" fill="#202945" stroke="#202945" stroke-width="1.51"/><path d="M827,-91L757,-125L745,-36Z" fill="#253759" stroke="#253759" stroke-width="1.51"/><path d="M974,-141L757,-125L827,-91Z" fill="#233455" stroke="#233455" stroke-width="1.51"/><path d="M1100,-47L1066,-91L1017,-31Z" fill="#1f2b4a" stroke="#1f2b4a" stroke-width="1.51"/><path d="M1216,-139L1066,-91L1100,-47Z" fill="#1e2846" stroke="#1e2846" stroke-width="1.51"/><path d="M1362,750L1416,672L1358,668Z" fill="#1e2544" stroke="#1e2544" stroke-width="1.51"/><path d="M240,398L219,453L300,388Z" fill="#334867" stroke="#334867" stroke-width="1.51"/><path d="M204,833L352,865L356,772Z" fill="#28324a" stroke="#28324a" stroke-width="1.51"/><path d="M376,862L343,915L438,907Z" fill="#283247" stroke="#283247" stroke-width="1.51"/><path d="M438,907L477,1044L493,885Z" fill="#28324a" stroke="#28324a" stroke-width="1.51"/><path d="M1033,1036L1089,1047L1142,932Z" fill="#1d2441" stroke="#1d2441" stroke-width="1.51"/><path d="M1198,898L1274,956L1202,877Z" fill="#1b1f39" stroke="#1b1f39" stroke-width="1.51"/><path d="M1286,823L1395,796L1362,750Z" fill="#1c213d" stroke="#1c213d" stroke-width="1.51"/><path d="M898,1046L1089,1047L1033,1036Z" fill="#1f2846" stroke="#1f2846" stroke-width="1.51"/><path d="M240,398L220,362L219,453Z" fill="#314665" stroke="#314665" stroke-width="1.51"/><path d="M252,245L220,362L288,319Z" fill="#344660" stroke="#344660" stroke-width="1.51"/><path d="M1066,-91L1010,-124L1017,-31Z" fill="#1f2c4c" stroke="#1f2c4c" stroke-width="1.51"/><path d="M333,192L252,245L288,319Z" fill="#36485e" stroke="#36485e" stroke-width="1.51"/><path d="M321,112L408,132L331,80Z" fill="#304055" stroke="#304055" stroke-width="1.51"/><path d="M456,-27L472,92L525,8Z" fill="#2a3a55" stroke="#2a3a55" stroke-width="1.51"/><path d="M331,80L408,132L439,95Z" fill="#304157" stroke="#304157" stroke-width="1.51"/><path d="M621,-139L525,8L589,5Z" fill="#283956" stroke="#283956" stroke-width="1.51"/><path d="M1089,1047L1155,1022L1142,932Z" fill="#1d223f" stroke="#1d223f" stroke-width="1.51"/><path d="M1010,-124L974,-141L1017,-31Z" fill="#202d4d" stroke="#202d4d" stroke-width="1.51"/><path d="M321,112L284,141L333,192Z" fill="#314257" stroke="#314257" stroke-width="1.51"/><path d="M456,-27L331,80L439,95Z" fill="#2d3c53" stroke="#2d3c53" stroke-width="1.51"/><path d="M257,48L284,141L321,112Z" fill="#2d3c51" stroke="#2d3c51" stroke-width="1.51"/><path d="M1362,929L1395,796L1286,823Z" fill="#1b1d37" stroke="#1b1d37" stroke-width="1.51"/><path d="M1362,750L1424,763L1416,672Z" fill="#1d233f" stroke="#1d233f" stroke-width="1.51"/><path d="M1155,1022L1274,956L1198,898Z" fill="#1c203a" stroke="#1c203a" stroke-width="1.51"/><path d="M650,-155L697,-4L745,-36Z" fill="#263a5b" stroke="#263a5b" stroke-width="1.51"/><path d="M650,-155L745,-36L757,-125Z" fill="#263a5c" stroke="#263a5c" stroke-width="1.51"/><path d="M1493,301L1474,262L1405,298Z" fill="#28324a" stroke="#28324a" stroke-width="1.51"/><path d="M1405,298L1433,185L1328,219Z" fill="#293349" stroke="#293349" stroke-width="1.51"/><path d="M1493,583L1488,458L1379,570Z" fill="#232e4d" stroke="#232e4d" stroke-width="1.51"/><path d="M1493,583L1379,570L1416,672Z" fill="#202948" stroke="#202948" stroke-width="1.51"/><path d="M1395,796L1424,763L1362,750Z" fill="#1c203b" stroke="#1c203b" stroke-width="1.51"/><path d="M1475,806L1424,763L1395,796Z" fill="#1b1e38" stroke="#1b1e38" stroke-width="1.51"/><path d="M974,-141L650,-155L757,-125Z" fill="#253658" stroke="#253658" stroke-width="1.51"/><path d="M204,833L343,915L352,865Z" fill="#272f46" stroke="#272f46" stroke-width="1.51"/><path d="M352,865L343,915L376,862Z" fill="#293248" stroke="#293248" stroke-width="1.51"/><path d="M226,729L356,772L274,652Z" fill="#293754" stroke="#293754" stroke-width="1.51"/><path d="M144,657L226,729L274,652Z" fill="#283554" stroke="#283554" stroke-width="1.51"/><path d="M144,657L274,652L253,593Z" fill="#2a3959" stroke="#2a3959" stroke-width="1.51"/><path d="M219,453L174,482L294,517Z" fill="#304565" stroke="#304565" stroke-width="1.51"/><path d="M118,410L174,482L219,453Z" fill="#2e4465" stroke="#2e4465" stroke-width="1.51"/><path d="M129,543L174,482L85,542Z" fill="#293c5d" stroke="#293c5d" stroke-width="1.51"/><path d="M219,453L220,362L118,410Z" fill="#2f4463" stroke="#2f4463" stroke-width="1.51"/><path d="M1488,458L1497,437L1409,403Z" fill="#263453" stroke="#263453" stroke-width="1.51"/><path d="M1525,434L1497,437L1488,458Z" fill="#263454" stroke="#263454" stroke-width="1.51"/><path d="M1474,262L1433,185L1405,298Z" fill="#283147" stroke="#283147" stroke-width="1.51"/><path d="M1326,141L1358,18L1272,84Z" fill="#212841" stroke="#212841" stroke-width="1.51"/><path d="M1562,610L1493,583L1544,703Z" fill="#1f2745" stroke="#1f2745" stroke-width="1.51"/><path d="M362,978L477,1044L438,907Z" fill="#283149" stroke="#283149" stroke-width="1.51"/><path d="M630,1036L477,1044L898,1046Z" fill="#263352" stroke="#263352" stroke-width="1.51"/><path d="M898,1046L477,1044L1089,1047Z" fill="#232f4f" stroke="#232f4f" stroke-width="1.51"/><path d="M1493,301L1405,298L1409,403Z" fill="#27324d" stroke="#27324d" stroke-width="1.51"/><path d="M1497,437L1493,301L1409,403Z" fill="#273350" stroke="#273350" stroke-width="1.51"/><path d="M343,915L362,978L438,907Z" fill="#283147" stroke="#283147" stroke-width="1.51"/><path d="M216,952L362,978L343,915Z" fill="#262e43" stroke="#262e43" stroke-width="1.51"/><path d="M1497,437L1525,434L1493,301Z" fill="#273351" stroke="#273351" stroke-width="1.51"/><path d="M1582,509L1525,434L1488,458Z" fill="#253253" stroke="#253253" stroke-width="1.51"/><path d="M1274,956L1362,929L1286,823Z" fill="#1a1c34" stroke="#1a1c34" stroke-width="1.51"/><path d="M1424,763L1544,703L1416,672Z" fill="#1d223e" stroke="#1d223e" stroke-width="1.51"/><path d="M1294,1030L1362,929L1274,956Z" fill="#1a1c34" stroke="#1a1c34" stroke-width="1.51"/><path d="M1206,3L1216,-139L1100,-47Z" fill="#1d2643" stroke="#1d2643" stroke-width="1.51"/><path d="M1066,-91L1216,-139L1010,-124Z" fill="#1e2948" stroke="#1e2948" stroke-width="1.51"/><path d="M1010,-124L1216,-139L974,-141Z" fill="#1f2a4a" stroke="#1f2a4a" stroke-width="1.51"/><path d="M1434,81L1358,18L1326,141Z" fill="#20263e" stroke="#20263e" stroke-width="1.51"/><path d="M1434,81L1326,141L1433,185Z" fill="#232b41" stroke="#232b41" stroke-width="1.51"/><path d="M1499,249L1433,185L1474,262Z" fill="#283146" stroke="#283146" stroke-width="1.51"/><path d="M1493,301L1499,249L1474,262Z" fill="#283149" stroke="#283149" stroke-width="1.51"/><path d="M1580,302L1499,249L1493,301Z" fill="#28324a" stroke="#28324a" stroke-width="1.51"/><path d="M1358,18L1324,-29L1272,84Z" fill="#1d233d" stroke="#1d233d" stroke-width="1.51"/><path d="M174,482L129,543L253,593Z" fill="#2c3e5e" stroke="#2c3e5e" stroke-width="1.51"/><path d="M133,338L220,362L147,256Z" fill="#2f415c" stroke="#2f415c" stroke-width="1.51"/><path d="M129,543L144,657L253,593Z" fill="#293959" stroke="#293959" stroke-width="1.51"/><path d="M226,729L204,833L356,772Z" fill="#27324d" stroke="#27324d" stroke-width="1.51"/><path d="M147,256L220,362L252,245Z" fill="#32445c" stroke="#32445c" stroke-width="1.51"/><path d="M324,-64L257,48L331,80Z" fill="#28364c" stroke="#28364c" stroke-width="1.51"/><path d="M331,80L257,48L321,112Z" fill="#2c3b51" stroke="#2c3b51" stroke-width="1.51"/><path d="M183,102L147,256L252,245Z" fill="#304055" stroke="#304055" stroke-width="1.51"/><path d="M621,-139L463,-136L525,8Z" fill="#283854" stroke="#283854" stroke-width="1.51"/><path d="M650,-155L463,-136L621,-139Z" fill="#283956" stroke="#283956" stroke-width="1.51"/><path d="M1358,18L1352,-20L1324,-29Z" fill="#1b2139" stroke="#1b2139" stroke-width="1.51"/><path d="M1435,4L1352,-20L1358,18Z" fill="#1a1f37" stroke="#1a1f37" stroke-width="1.51"/><path d="M1573,179L1434,81L1433,185Z" fill="#232a40" stroke="#232a40" stroke-width="1.51"/><path d="M324,-64L331,80L456,-27Z" fill="#29374e" stroke="#29374e" stroke-width="1.51"/><path d="M1089,1047L1294,1030L1155,1022Z" fill="#1c213c" stroke="#1c213c" stroke-width="1.51"/><path d="M1155,1022L1294,1030L1274,956Z" fill="#1b1f38" stroke="#1b1f38" stroke-width="1.51"/><path d="M133,338L118,410L220,362Z" fill="#2f425f" stroke="#2f425f" stroke-width="1.51"/><path d="M1493,583L1582,509L1488,458Z" fill="#232f4f" stroke="#232f4f" stroke-width="1.51"/><path d="M1447,916L1475,806L1395,796Z" fill="#1a1b32" stroke="#1a1b32" stroke-width="1.51"/><path d="M1447,916L1395,796L1362,929Z" fill="#191b31" stroke="#191b31" stroke-width="1.51"/><path d="M362,978L382,1038L477,1044Z" fill="#283148" stroke="#283148" stroke-width="1.51"/><path d="M203,1011L382,1038L362,978Z" fill="#262f43" stroke="#262f43" stroke-width="1.51"/><path d="M183,102L252,245L284,141Z" fill="#2f3f54" stroke="#2f3f54" stroke-width="1.51"/><path d="M133,338L81,401L118,410Z" fill="#2c3f5d" stroke="#2c3f5d" stroke-width="1.51"/><path d="M463,-136L422,-118L456,-27Z" fill="#293751" stroke="#293751" stroke-width="1.51"/><path d="M974,-141L1216,-139L650,-155Z" fill="#213050" stroke="#213050" stroke-width="1.51"/><path d="M1324,-29L1216,-139L1206,3Z" fill="#1c243f" stroke="#1c243f" stroke-width="1.51"/><path d="M1317,-131L1216,-139L1324,-29Z" fill="#1c233d" stroke="#1c233d" stroke-width="1.51"/><path d="M150,826L204,833L226,729Z" fill="#242d47" stroke="#242d47" stroke-width="1.51"/><path d="M1544,703L1493,583L1416,672Z" fill="#1e2644" stroke="#1e2644" stroke-width="1.51"/><path d="M1525,434L1580,302L1493,301Z" fill="#27324d" stroke="#27324d" stroke-width="1.51"/><path d="M367,-111L324,-64L456,-27Z" fill="#29374e" stroke="#29374e" stroke-width="1.51"/><path d="M85,542L144,657L129,543Z" fill="#273757" stroke="#273757" stroke-width="1.51"/><path d="M73,670L133,727L144,657Z" fill="#23304e" stroke="#23304e" stroke-width="1.51"/><path d="M144,657L133,727L226,729Z" fill="#25314f" stroke="#25314f" stroke-width="1.51"/><path d="M1475,806L1544,703L1424,763Z" fill="#1c203a" stroke="#1c203a" stroke-width="1.51"/><path d="M1559,755L1582,509L1562,610Z" fill="#202846" stroke="#202846" stroke-width="1.51"/><path d="M1562,610L1582,509L1493,583Z" fill="#222b4a" stroke="#222b4a" stroke-width="1.51"/><path d="M422,-118L367,-111L456,-27Z" fill="#293750" stroke="#293750" stroke-width="1.51"/><path d="M463,-136L367,-111L422,-118Z" fill="#293750" stroke="#293750" stroke-width="1.51"/><path d="M257,48L183,102L284,141Z" fill="#2b394f" stroke="#2b394f" stroke-width="1.51"/><path d="M153,109L183,102L197,-33Z" fill="#253248" stroke="#253248" stroke-width="1.51"/><path d="M118,410L85,542L174,482Z" fill="#2b3f60" stroke="#2b3f60" stroke-width="1.51"/><path d="M41,502L85,542L118,410Z" fill="#293c5d" stroke="#293c5d" stroke-width="1.51"/><path d="M1408,978L1447,916L1362,929Z" fill="#19192f" stroke="#19192f" stroke-width="1.51"/><path d="M1475,806L1559,755L1544,703Z" fill="#1c203a" stroke="#1c203a" stroke-width="1.51"/><path d="M60,330L81,401L133,338Z" fill="#2c3e5a" stroke="#2c3e5a" stroke-width="1.51"/><path d="M104,244L133,338L147,256Z" fill="#2e3f57" stroke="#2e3f57" stroke-width="1.51"/><path d="M1294,1030L1408,978L1362,929Z" fill="#1a1b32" stroke="#1a1b32" stroke-width="1.51"/><path d="M1352,-20L1317,-131L1324,-29Z" fill="#1b213b" stroke="#1b213b" stroke-width="1.51"/><path d="M1434,81L1435,4L1358,18Z" fill="#1c2138" stroke="#1c2138" stroke-width="1.51"/><path d="M1569,12L1435,4L1434,81Z" fill="#1b2036" stroke="#1b2036" stroke-width="1.51"/><path d="M1573,179L1433,185L1499,249Z" fill="#272f44" stroke="#272f44" stroke-width="1.51"/><path d="M1582,509L1580,302L1525,434Z" fill="#263352" stroke="#263352" stroke-width="1.51"/><path d="M74,168L104,244L147,256Z" fill="#2e3d53" stroke="#2e3d53" stroke-width="1.51"/><path d="M133,727L150,826L226,729Z" fill="#242e4a" stroke="#242e4a" stroke-width="1.51"/><path d="M204,833L216,952L343,915Z" fill="#242b41" stroke="#242b41" stroke-width="1.51"/><path d="M78,743L150,826L133,727Z" fill="#212b47" stroke="#212b47" stroke-width="1.51"/><path d="M183,102L153,109L147,256Z" fill="#2b3a4f" stroke="#2b3a4f" stroke-width="1.51"/><path d="M220,-24L183,102L257,48Z" fill="#263249" stroke="#263249" stroke-width="1.51"/><path d="M220,-24L257,48L324,-64Z" fill="#253248" stroke="#253248" stroke-width="1.51"/><path d="M1391,-135L1317,-131L1352,-20Z" fill="#1b2139" stroke="#1b2139" stroke-width="1.51"/><path d="M1544,703L1559,755L1562,610Z" fill="#1d2340" stroke="#1d2340" stroke-width="1.51"/><path d="M1547,850L1559,755L1475,806Z" fill="#1b1d36" stroke="#1b1d36" stroke-width="1.51"/><path d="M1547,850L1475,806L1447,916Z" fill="#191a31" stroke="#191a31" stroke-width="1.51"/><path d="M150,826L216,952L204,833Z" fill="#222940" stroke="#222940" stroke-width="1.51"/><path d="M85,542L73,670L144,657Z" fill="#253353" stroke="#253353" stroke-width="1.51"/><path d="M20,562L73,670L85,542Z" fill="#243353" stroke="#243353" stroke-width="1.51"/><path d="M81,401L41,502L118,410Z" fill="#2a3f5f" stroke="#2a3f5f" stroke-width="1.51"/><path d="M104,244L60,330L133,338Z" fill="#2d3e58" stroke="#2d3e58" stroke-width="1.51"/><path d="M-42,290L60,330L104,244Z" fill="#2a3a54" stroke="#2a3a54" stroke-width="1.51"/><path d="M287,-119L220,-24L324,-64Z" fill="#263249" stroke="#263249" stroke-width="1.51"/><path d="M9,494L41,502L81,401Z" fill="#283b5d" stroke="#283b5d" stroke-width="1.51"/><path d="M1580,302L1573,179L1499,249Z" fill="#283147" stroke="#283147" stroke-width="1.51"/><path d="M125,962L197,1002L216,952Z" fill="#21273d" stroke="#21273d" stroke-width="1.51"/><path d="M73,670L78,743L133,727Z" fill="#222d4a" stroke="#222d4a" stroke-width="1.51"/><path d="M8,644L78,743L73,670Z" fill="#202c4b" stroke="#202c4b" stroke-width="1.51"/><path d="M1549,965L1547,850L1447,916Z" fill="#18182d" stroke="#18182d" stroke-width="1.51"/><path d="M367,-111L287,-119L324,-64Z" fill="#28354b" stroke="#28354b" stroke-width="1.51"/><path d="M463,-136L287,-119L367,-111Z" fill="#29374e" stroke="#29374e" stroke-width="1.51"/><path d="M54,-130L287,-119L-34,-145Z" fill="#1e2840" stroke="#1e2840" stroke-width="1.51"/><path d="M220,-24L197,-33L183,102Z" fill="#232f46" stroke="#232f46" stroke-width="1.51"/><path d="M153,109L74,168L147,256Z" fill="#2b3a50" stroke="#2b3a50" stroke-width="1.51"/><path d="M287,-119L197,-33L220,-24Z" fill="#243047" stroke="#243047" stroke-width="1.51"/><path d="M1408,978L1483,972L1447,916Z" fill="#18182d" stroke="#18182d" stroke-width="1.51"/><path d="M1582,1009L1483,972L1408,978Z" fill="#18182d" stroke="#18182d" stroke-width="1.51"/><path d="M41,502L20,562L85,542Z" fill="#253657" stroke="#253657" stroke-width="1.51"/><path d="M9,494L20,562L41,502Z" fill="#253757" stroke="#253757" stroke-width="1.51"/><path d="M63,63L74,168L153,109Z" fill="#253249" stroke="#253249" stroke-width="1.51"/><path d="M-28,408L9,494L81,401Z" fill="#283b5c" stroke="#283b5c" stroke-width="1.51"/><path d="M-28,408L81,401L60,330Z" fill="#293b59" stroke="#293b59" stroke-width="1.51"/><path d="M125,962L216,952L150,826Z" fill="#20263c" stroke="#20263c" stroke-width="1.51"/><path d="M216,952L203,1011L362,978Z" fill="#242b41" stroke="#242b41" stroke-width="1.51"/><path d="M1435,4L1391,-135L1352,-20Z" fill="#1a1f36" stroke="#1a1f36" stroke-width="1.51"/><path d="M1317,-131L1436,-143L1216,-139Z" fill="#1b223b" stroke="#1b223b" stroke-width="1.51"/><path d="M1216,-139L1436,-143L650,-155Z" fill="#1e2948" stroke="#1e2948" stroke-width="1.51"/><path d="M1436,-143L1391,-135L1435,4Z" fill="#1a1e35" stroke="#1a1e35" stroke-width="1.51"/><path d="M197,1002L203,1011L216,952Z" fill="#22293e" stroke="#22293e" stroke-width="1.51"/><path d="M-61,569L8,644L20,562Z" fill="#213050" stroke="#213050" stroke-width="1.51"/><path d="M20,562L8,644L73,670Z" fill="#222f4f" stroke="#222f4f" stroke-width="1.51"/><path d="M78,743L81,879L150,826Z" fill="#202741" stroke="#202741" stroke-width="1.51"/><path d="M1580,302L1574,70L1573,179Z" fill="#252d42" stroke="#252d42" stroke-width="1.51"/><path d="M1573,179L1574,70L1434,81Z" fill="#21273d" stroke="#21273d" stroke-width="1.51"/><path d="M197,1002L113,1006L203,1011Z" fill="#21273c" stroke="#21273c" stroke-width="1.51"/><path d="M-5,785L81,879L78,743Z" fill="#1e2640" stroke="#1e2640" stroke-width="1.51"/><path d="M81,879L125,962L150,826Z" fill="#1f243b" stroke="#1f243b" stroke-width="1.51"/><path d="M1559,-95L1436,-143L1435,4Z" fill="#191d34" stroke="#191d34" stroke-width="1.51"/><path d="M1391,-135L1436,-143L1317,-131Z" fill="#1a1f37" stroke="#1a1f37" stroke-width="1.51"/><path d="M-42,290L-28,408L60,330Z" fill="#283855" stroke="#283855" stroke-width="1.51"/><path d="M9,494L-61,569L20,562Z" fill="#233354" stroke="#233354" stroke-width="1.51"/><path d="M1582,1009L1549,965L1483,972Z" fill="#18182d" stroke="#18182d" stroke-width="1.51"/><path d="M1483,972L1549,965L1447,916Z" fill="#18182d" stroke="#18182d" stroke-width="1.51"/><path d="M1547,850L1582,1009L1559,755Z" fill="#19192f" stroke="#19192f" stroke-width="1.51"/><path d="M1559,755L1582,1009L1582,509Z" fill="#1c203a" stroke="#1c203a" stroke-width="1.51"/><path d="M1574,70L1569,12L1434,81Z" fill="#1d2238" stroke="#1d2238" stroke-width="1.51"/><path d="M-52,259L-42,290L104,244Z" fill="#293750" stroke="#293750" stroke-width="1.51"/><path d="M197,-33L63,63L153,109Z" fill="#232e45" stroke="#232e45" stroke-width="1.51"/><path d="M53,12L63,63L197,-33Z" fill="#1f2941" stroke="#1f2941" stroke-width="1.51"/><path d="M12,941L113,1006L125,962Z" fill="#1d2238" stroke="#1d2238" stroke-width="1.51"/><path d="M8,644L-5,785L78,743Z" fill="#1e2846" stroke="#1e2846" stroke-width="1.51"/><path d="M-69,650L-5,785L8,644Z" fill="#1e2947" stroke="#1e2947" stroke-width="1.51"/><path d="M37,907L125,962L81,879Z" fill="#1d2238" stroke="#1d2238" stroke-width="1.51"/><path d="M125,962L113,1006L197,1002Z" fill="#1f253b" stroke="#1f253b" stroke-width="1.51"/><path d="M203,1011L-34,1020L382,1038Z" fill="#21273d" stroke="#21273d" stroke-width="1.51"/><path d="M-84,472L-61,569L9,494Z" fill="#243557" stroke="#243557" stroke-width="1.51"/><path d="M-52,259L104,244L74,168Z" fill="#2b3a4f" stroke="#2b3a4f" stroke-width="1.51"/><path d="M-84,472L9,494L-28,408Z" fill="#26395b" stroke="#26395b" stroke-width="1.51"/><path d="M3,861L37,907L81,879Z" fill="#1b2037" stroke="#1b2037" stroke-width="1.51"/><path d="M63,63L-12,138L74,168Z" fill="#243047" stroke="#243047" stroke-width="1.51"/><path d="M123,-99L53,12L197,-33Z" fill="#202a41" stroke="#202a41" stroke-width="1.51"/><path d="M-48,98L-12,138L63,63Z" fill="#212c43" stroke="#212c43" stroke-width="1.51"/><path d="M-42,290L-74,382L-28,408Z" fill="#283956" stroke="#283956" stroke-width="1.51"/><path d="M-12,138L-52,259L74,168Z" fill="#27344a" stroke="#27344a" stroke-width="1.51"/><path d="M-134,360L-74,382L-42,290Z" fill="#283855" stroke="#283855" stroke-width="1.51"/><path d="M287,-119L123,-99L197,-33Z" fill="#222e45" stroke="#222e45" stroke-width="1.51"/><path d="M-5,785L3,861L81,879Z" fill="#1c223b" stroke="#1c223b" stroke-width="1.51"/><path d="M-99,829L3,861L-5,785Z" fill="#1b223b" stroke="#1b223b" stroke-width="1.51"/><path d="M1294,1030L1582,1009L1408,978Z" fill="#18182d" stroke="#18182d" stroke-width="1.51"/><path d="M1549,965L1582,1009L1547,850Z" fill="#18182d" stroke="#18182d" stroke-width="1.51"/><path d="M1089,1047L1582,1009L1294,1030Z" fill="#1a1c34" stroke="#1a1c34" stroke-width="1.51"/><path d="M-74,382L-84,472L-28,408Z" fill="#26395a" stroke="#26395a" stroke-width="1.51"/><path d="M-61,569L-69,650L8,644Z" fill="#202e4e" stroke="#202e4e" stroke-width="1.51"/><path d="M-84,472L-69,650L-61,569Z" fill="#223252" stroke="#223252" stroke-width="1.51"/><path d="M1569,12L1559,-95L1435,4Z" fill="#191d34" stroke="#191d34" stroke-width="1.51"/><path d="M3,861L12,941L37,907Z" fill="#1a1e35" stroke="#1a1e35" stroke-width="1.51"/><path d="M37,907L12,941L125,962Z" fill="#1c2037" stroke="#1c2037" stroke-width="1.51"/><path d="M-78,886L12,941L3,861Z" fill="#191d34" stroke="#191d34" stroke-width="1.51"/><path d="M-48,98L63,63L53,12Z" fill="#1f2940" stroke="#1f2940" stroke-width="1.51"/><path d="M-48,98L-74,181L-12,138Z" fill="#232f46" stroke="#232f46" stroke-width="1.51"/><path d="M-12,138L-74,181L-52,259Z" fill="#27344b" stroke="#27344b" stroke-width="1.51"/><path d="M-133,275L-134,360L-42,290Z" fill="#283852" stroke="#283852" stroke-width="1.51"/><path d="M-74,382L-134,360L-84,472Z" fill="#273959" stroke="#273959" stroke-width="1.51"/><path d="M-115,42L-48,98L53,12Z" fill="#1e273f" stroke="#1e273f" stroke-width="1.51"/><path d="M123,-99L24,-66L53,12Z" fill="#1d263e" stroke="#1d263e" stroke-width="1.51"/><path d="M-84,472L-119,762L-69,650Z" fill="#202d4d" stroke="#202d4d" stroke-width="1.51"/><path d="M-133,275L-42,290L-52,259Z" fill="#293751" stroke="#293751" stroke-width="1.51"/><path d="M-133,275L-52,259L-74,181Z" fill="#29374e" stroke="#29374e" stroke-width="1.51"/><path d="M-115,42L-74,181L-48,98Z" fill="#212c43" stroke="#212c43" stroke-width="1.51"/><path d="M-115,42L-133,275L-74,181Z" fill="#253248" stroke="#253248" stroke-width="1.51"/><path d="M-34,-145L287,-119L463,-136Z" fill="#243047" stroke="#243047" stroke-width="1.51"/><path d="M287,-119L54,-130L123,-99Z" fill="#202b43" stroke="#202b43" stroke-width="1.51"/><path d="M123,-99L54,-130L24,-66Z" fill="#1d263e" stroke="#1d263e" stroke-width="1.51"/><path d="M-69,650L-119,762L-5,785Z" fill="#1d2644" stroke="#1d2644" stroke-width="1.51"/><path d="M-134,360L-119,762L-84,472Z" fill="#233455" stroke="#233455" stroke-width="1.51"/><path d="M-119,762L-99,829L-5,785Z" fill="#1c243e" stroke="#1c243e" stroke-width="1.51"/><path d="M-99,829L-78,886L3,861Z" fill="#1a1f38" stroke="#1a1f38" stroke-width="1.51"/><path d="M12,941L-34,1020L113,1006Z" fill="#1b1f35" stroke="#1b1f35" stroke-width="1.51"/><path d="M-127,993L-34,1020L-78,886Z" fill="#191d34" stroke="#191d34" stroke-width="1.51"/><path d="M-78,886L-34,1020L12,941Z" fill="#191d34" stroke="#191d34" stroke-width="1.51"/><path d="M113,1006L-34,1020L203,1011Z" fill="#1d2238" stroke="#1d2238" stroke-width="1.51"/><path d="M382,1038L-34,1020L477,1044Z" fill="#252c41" stroke="#252c41" stroke-width="1.51"/><path d="M-133,-35L-115,42L24,-66Z" fill="#1a233b" stroke="#1a233b" stroke-width="1.51"/><path d="M24,-66L-115,42L53,12Z" fill="#1a233b" stroke="#1a233b" stroke-width="1.51"/><path d="M54,-130L-34,-145L24,-66Z" fill="#1b243c" stroke="#1b243c" stroke-width="1.51"/><path d="M650,-155L-34,-145L463,-136Z" fill="#29374d" stroke="#29374d" stroke-width="1.51"/><path d="M-99,829L-127,993L-78,886Z" fill="#191d34" stroke="#191d34" stroke-width="1.51"/><path d="M-119,762L-127,993L-99,829Z" fill="#1a1f37" stroke="#1a1f37" stroke-width="1.51"/><path d="M-134,360L-127,993L-119,762Z" fill="#1e2846" stroke="#1e2846" stroke-width="1.51"/><path d="M-111,-121L-133,-35L24,-66Z" fill="#1a233b" stroke="#1a233b" stroke-width="1.51"/><path d="M-115,42L-133,-35L-133,275Z" fill="#202b42" stroke="#202b42" stroke-width="1.51"/><path d="M-133,275L-133,-35L-134,360Z" fill="#27354b" stroke="#27354b" stroke-width="1.51"/><path d="M-34,-145L-111,-121L24,-66Z" fill="#1a233b" stroke="#1a233b" stroke-width="1.51"/></svg>